<svg width="111" height="111" viewBox="0 0 111 111" fill="none" xmlns="http://www.w3.org/2000/svg">
<circle cx="55.5" cy="55.5" r="54.5" stroke="#FFCC00" stroke-width="2"/>
<path d="M56.5544 30.4756H54.2783V32.7516H56.5544V30.4756Z" fill="#2D314F"/>
<path d="M50.1431 31.5838L48.1719 32.7217L49.3097 34.6929L51.281 33.555L50.1431 31.5838Z" fill="#2D314F"/>
<path d="M45.144 35.7506L44.0059 37.7217L45.9769 38.8598L47.115 36.8887L45.144 35.7506Z" fill="#2D314F"/>
<path d="M45.1745 41.8564H42.8984V44.1325H45.1745V41.8564Z" fill="#2D314F"/>
<path d="M45.9784 47.1285L44.0073 48.2666L45.1454 50.2377L47.1165 49.0996L45.9784 47.1285Z" fill="#2D314F"/>
<path d="M64.8559 47.1305L63.7178 49.1016L65.6889 50.2397L66.827 48.2686L64.8559 47.1305Z" fill="#2D314F"/>
<path d="M67.9348 41.8564H65.6587V44.1325H67.9348V41.8564Z" fill="#2D314F"/>
<path d="M65.689 35.7498L63.7178 36.8877L64.8556 38.8589L66.8269 37.7211L65.689 35.7498Z" fill="#2D314F"/>
<path d="M60.6906 31.5844L59.5527 33.5557L61.524 34.6935L62.6618 32.7223L60.6906 31.5844Z" fill="#2D314F"/>
<path d="M66.7968 69.1689V67.348C66.7942 65.6965 67.1206 64.0611 67.7567 62.537C68.3929 61.013 69.3262 59.6309 70.5022 58.4714C72.5787 56.4653 74.2281 54.0601 75.3514 51.4004C76.4748 48.7407 77.0488 45.8814 77.0391 42.9942C77.0434 39.4174 76.1603 35.8955 74.469 32.7438C72.7777 29.5922 70.331 26.9094 67.3481 24.9357C64.3652 22.962 60.9392 21.7591 57.3772 21.4348C53.8152 21.1105 50.2284 21.6748 46.9381 23.0773C43.6477 24.4798 40.7567 26.6766 38.524 29.4709C36.2913 32.2652 34.7867 35.5698 34.1449 39.0885C33.5031 42.6072 33.7442 46.2301 34.8466 49.6328C35.9491 53.0354 37.8783 56.1114 40.4616 58.5852C41.6149 59.7313 42.5257 61.0977 43.1398 62.6032C43.754 64.1086 44.0588 65.7223 44.0362 67.348V69.1689C42.9614 69.1663 41.9206 69.5452 41.0989 70.2379C40.2771 70.9307 39.7278 71.8924 39.5485 72.9521C39.3692 74.0119 39.5716 75.1008 40.1198 76.0253C40.6679 76.9498 41.5262 77.6499 42.542 78.0011C42.0795 78.6857 41.8121 79.4832 41.7684 80.3082C41.7247 81.1331 41.9062 81.9544 42.2937 82.6841C42.6811 83.4137 43.2598 84.0241 43.9678 84.45C44.6757 84.8758 45.4861 85.1009 46.3123 85.1013H47.5641C47.8282 86.3856 48.5271 87.5397 49.5428 88.3689C50.5586 89.1981 51.8292 89.6517 53.1404 89.6534H57.6926C59.0038 89.6517 60.2744 89.1981 61.2902 88.3689C62.3059 87.5397 63.0048 86.3856 63.2689 85.1013H64.5207C65.3469 85.1009 66.1573 84.8758 66.8652 84.45C67.5732 84.0241 68.1519 83.4137 68.5393 82.6841C68.9268 81.9544 69.1083 81.1331 69.0646 80.3082C69.0209 79.4832 68.7535 78.6857 68.291 78.0011C69.3068 77.6499 70.1651 76.9498 70.7133 76.0253C71.2614 75.1008 71.4638 74.0119 71.2845 72.9521C71.1053 71.8924 70.5559 70.9307 69.7341 70.2379C68.9124 69.5452 67.8716 69.1663 66.7968 69.1689ZM42.0355 56.9441C39.9608 54.9623 38.3542 52.5427 37.3327 49.8616C36.3111 47.1804 35.9004 44.3052 36.1303 41.4453C36.5225 36.9902 38.4315 32.8046 41.5384 29.5877C44.6453 26.3708 48.762 24.3174 53.2008 23.7706C57.2097 23.3075 61.2631 24.1106 64.7927 26.0671C68.3223 28.0237 71.1511 31.0357 72.8828 34.6809C74.6144 38.3261 75.162 42.4218 74.4488 46.3939C73.7355 50.366 71.7972 54.0153 68.9056 56.8303C67.5128 58.2044 66.4077 59.8421 65.6549 61.648C64.902 63.4538 64.5165 65.3915 64.5207 67.348V69.1689H62.2447V47.5463C62.2447 47.333 62.1847 47.124 62.0717 46.9431L56.3816 37.8389C56.2723 37.6839 56.1274 37.5574 55.959 37.4702C55.7907 37.3829 55.6039 37.3373 55.4142 37.3373C55.2246 37.3373 55.0378 37.3829 54.8694 37.4702C54.7011 37.5574 54.5562 37.6839 54.4469 37.8389L48.7568 46.9431C48.6453 47.1245 48.587 47.3334 48.5883 47.5463V69.1689H46.3123V67.348C46.3338 65.4156 45.9663 63.4987 45.2316 61.7113C44.4968 59.9239 43.4099 58.3027 42.0355 56.9441ZM53.2019 44.1322H57.6311L59.0536 46.4083H51.7748L53.2019 44.1322ZM54.6244 41.8561L55.4211 40.5895L56.2131 41.8561H54.6244ZM50.8644 48.6843H54.2785V69.1689H50.8644V48.6843ZM56.5545 48.6843H59.9686V69.1689H56.5545V48.6843ZM57.6926 87.3773H53.1404C52.4368 87.3744 51.7513 87.1542 51.1777 86.7468C50.604 86.3393 50.1703 85.7646 49.9358 85.1013H60.8973C60.6627 85.7646 60.229 86.3393 59.6553 86.7468C59.0817 87.1542 58.3962 87.3744 57.6926 87.3773ZM64.5207 82.8252H46.3123C45.7086 82.8252 45.1297 82.5854 44.7028 82.1586C44.276 81.7317 44.0362 81.1528 44.0362 80.5492C44.0362 79.9455 44.276 79.3666 44.7028 78.9397C45.1297 78.5129 45.7086 78.2731 46.3123 78.2731H64.5207C65.1244 78.2731 65.7033 78.5129 66.1302 78.9397C66.557 79.3666 66.7968 79.9455 66.7968 80.5492C66.7968 81.1528 66.557 81.7317 66.1302 82.1586C65.7033 82.5854 65.1244 82.8252 64.5207 82.8252ZM66.7968 75.997H44.0362C43.4326 75.997 42.8536 75.7572 42.4268 75.3304C41.9999 74.9036 41.7601 74.3246 41.7601 73.721C41.7601 73.1173 41.9999 72.5384 42.4268 72.1116C42.8536 71.6847 43.4326 71.4449 44.0362 71.4449H66.7968C67.4005 71.4449 67.9794 71.6847 68.4062 72.1116C68.8331 72.5384 69.0729 73.1173 69.0729 73.721C69.0729 74.3246 68.8331 74.9036 68.4062 75.3304C67.9794 75.7572 67.4005 75.997 66.7968 75.997Z" fill="#2D314F"/>
<path d="M83.8675 41.8564H79.3154V44.1325H83.8675V41.8564Z" fill="#2D314F"/>
<path d="M79.4869 27.7829L75.5444 30.0586L76.6823 32.0298L80.6247 29.7541L79.4869 27.7829Z" fill="#2D314F"/>
<path d="M31.3465 27.7827L30.2085 29.7539L34.1508 32.0298L35.2888 30.0587L31.3465 27.7827Z" fill="#2D314F"/>
<path d="M31.5179 41.8564H26.9658V44.1325H31.5179V41.8564Z" fill="#2D314F"/>
<path d="M34.1509 53.9577L30.2085 56.2334L31.3464 58.2046L35.2888 55.9289L34.1509 53.9577Z" fill="#2D314F"/>
<path d="M76.6819 53.9575L75.5439 55.9287L79.4863 58.2046L80.6242 56.2335L76.6819 53.9575Z" fill="#2D314F"/>
</svg>
