<svg width="111" height="111" viewBox="0 0 111 111" fill="none" xmlns="http://www.w3.org/2000/svg">
<circle cx="55.5" cy="55.5" r="54.5" stroke="#FFCC00" stroke-width="2"/>
<path d="M48.7097 83.4189H46.5161V85.6125H48.7097V83.4189Z" fill="#2D314F"/>
<path d="M33.3547 83.4189H31.1611V85.6125H33.3547V83.4189Z" fill="#2D314F"/>
<path d="M85.6874 42.0139L79.4194 31.5672V24.1935C79.4194 22.9838 78.4356 22 77.2258 22H39.9355C38.7257 22 37.7419 22.9838 37.7419 24.1935V31.5672L31.4739 42.0139C31.2699 42.355 31.1613 42.7455 31.1613 43.1425V45.0323C31.1613 46.4603 32.0815 47.6667 33.3548 48.1208V54.9032H29.8616L27.9916 41.4414C27.8425 40.3622 26.9091 39.5484 25.8189 39.5484H20.1935C18.9838 39.5484 18 40.5322 18 41.7419V43.9355C18 45.1452 18.9838 46.129 20.1935 46.129H26.4287L31.0198 79.1858C28.5926 79.7506 26.7742 81.9201 26.7742 84.5161C26.7742 87.5399 29.2343 90 32.2581 90C34.9057 90 37.1212 88.1124 37.6312 85.6129H42.2398C42.7498 88.1124 44.9642 90 47.6129 90C50.2616 90 52.476 88.1124 52.986 85.6129H81.6129C82.8226 85.6129 83.8064 84.6291 83.8064 83.4194V48.1208C85.0798 47.6667 86 46.4603 86 45.0323V43.1425C86 42.7455 85.8914 42.355 85.6874 42.0139ZM20.1935 43.9355V41.7419H25.8189L26.1238 43.9355H20.1935ZM77.7018 32.9677L82.9663 41.7419H73.6547L71.0225 32.9677H77.7018ZM34.4516 46.129C33.8473 46.129 33.3548 45.6377 33.3548 45.0323V43.9355H42.9472C41.7594 45.3207 40.0254 46.129 38.1741 46.129H34.4516ZM72.8387 30.7742H70.643C70.6419 30.1008 70.6408 29.2486 70.6408 28.5806H72.8387V30.7742ZM59.6774 41.7419V32.9677H68.7324L71.3646 41.7419H59.6774ZM68.4494 30.7742H66.2581V28.5806H68.456C68.4483 29.1181 68.4483 29.8354 68.4494 30.7742ZM64.0645 30.7742H57.4839V28.5806H64.0645V30.7742ZM57.4839 32.9677V41.7419H45.7966L48.4289 32.9677H57.4839ZM43.5066 41.7419H34.195L39.4595 32.9677H46.1388L43.5066 41.7419ZM56.7523 43.9355L55.8826 44.5881C54.5577 45.5817 52.9158 46.129 51.2597 46.129C49.2328 46.129 47.3277 45.3492 45.88 43.9355H56.7523ZM71.2681 43.9355C69.7513 45.3481 67.7925 46.129 65.7097 46.129C63.6269 46.129 61.6681 45.3481 60.1523 43.9355H71.2681ZM39.9355 24.1935H77.2258V30.7742H75.0323V28.5806C75.0323 27.3709 74.0485 26.3871 72.8387 26.3871H57.4839C56.2741 26.3871 55.2903 27.3709 55.2903 28.5806V30.7742H39.9355V24.1935ZM55.4515 57.0968V59.2903H30.4714L30.1665 57.0968H55.4515ZM47.3047 61.4839L46.2079 65.871H39.9355V61.4839H47.3047ZM37.7419 65.871H31.385L30.7752 61.4839H37.7419V65.871ZM31.6899 68.0645H37.7419V72.4516H32.2997L31.6899 68.0645ZM39.9355 68.0645H45.6595L44.5628 72.4516H39.9355V68.0645ZM47.9211 68.0645H52.7348L51.218 72.4516H46.8232L47.9211 68.0645ZM50.9032 74.6452H51.2191C52.1525 74.6452 52.986 74.0529 53.2931 73.1689L53.5399 72.4516H55.2903V76.8387H50.9032V74.6452ZM53.4938 65.871H48.4695L49.5663 61.4839H55.0095L53.4938 65.871ZM32.2581 87.8064C30.444 87.8064 28.9677 86.3302 28.9677 84.5161C28.9677 82.7021 30.444 81.2258 32.2581 81.2258C34.0721 81.2258 35.5484 82.7021 35.5484 84.5161C35.5484 86.3302 34.0721 87.8064 32.2581 87.8064ZM47.6129 87.8064C45.7988 87.8064 44.3226 86.3302 44.3226 84.5161C44.3226 82.7021 45.7988 81.2258 47.6129 81.2258C49.427 81.2258 50.9032 82.7021 50.9032 84.5161C50.9032 86.3302 49.427 87.8064 47.6129 87.8064ZM52.986 83.4194C52.476 80.9198 50.2616 79.0323 47.6129 79.0323C44.9642 79.0323 42.7498 80.9198 42.2398 83.4194H37.6312C37.1859 81.2324 35.431 79.5258 33.2265 79.1299L32.6035 74.6452H48.7097V76.8387C48.7097 78.0485 49.6935 79.0323 50.9032 79.0323H55.2903C56.5001 79.0323 57.4839 78.0485 57.4839 76.8387V72.4516C57.4839 71.2419 56.5001 70.2581 55.2903 70.2581H54.2977L57.5255 60.9168C57.6045 60.6854 57.6451 60.4452 57.6451 60.2028V57.0968C57.6451 55.887 56.6613 54.9032 55.4515 54.9032H35.5484V48.3226H38.1752C40.5749 48.3226 42.8277 47.3168 44.4213 45.5817C46.2715 47.3508 48.691 48.3226 51.2597 48.3226C53.3874 48.3226 55.4965 47.6185 57.1998 46.3418L58.4786 45.3832C60.4254 47.2795 62.9875 48.3226 65.7097 48.3226C68.3376 48.3226 70.8163 47.3508 72.7367 45.5774C74.3303 47.3157 76.5853 48.3226 78.9861 48.3226H81.6129V83.4194H52.986ZM82.7097 46.129H78.9861C77.1348 46.129 75.4008 45.3207 74.213 43.9355H83.8064V45.0323C83.8064 45.6377 83.314 46.129 82.7097 46.129Z" fill="#2D314F"/>
<path d="M44.3225 26.3867H42.1289V28.5803H44.3225V26.3867Z" fill="#2D314F"/>
<path d="M48.7097 26.3867H46.5161V28.5803H48.7097V26.3867Z" fill="#2D314F"/>
<path d="M53.0969 26.3867H50.9033V28.5803H53.0969V26.3867Z" fill="#2D314F"/>
<path d="M66.2579 70.2578H61.8708C60.6611 70.2578 59.6772 71.2416 59.6772 72.4514V76.8385C59.6772 78.0482 60.6611 79.032 61.8708 79.032H66.2579C67.4676 79.032 68.4514 78.0482 68.4514 76.8385V72.4514C68.4514 71.2416 67.4676 70.2578 66.2579 70.2578ZM61.8708 76.8385V72.4514H66.2579L66.259 76.8385H61.8708Z" fill="#2D314F"/>
<path d="M79.7406 68.3857L77.7861 70.3402C77.6062 70.2919 77.4209 70.2579 77.2257 70.2579H72.8386C71.6288 70.2579 70.645 71.2417 70.645 72.4515V76.8386C70.645 78.0483 71.6288 79.0321 72.8386 79.0321H77.2257C78.4354 79.0321 79.4192 78.0483 79.4192 76.8386V72.4515C79.4192 72.2563 79.3852 72.0709 79.337 71.891L81.2914 69.9366L79.7406 68.3857ZM77.2268 76.8386H72.8386V72.4515H75.6748L75.0321 73.0942L74.7108 72.7728L73.1599 74.3237L75.0321 76.1959L77.2257 74.0023L77.2268 76.8386Z" fill="#2D314F"/>
<path d="M61.8708 68.065H77.2256C78.4354 68.065 79.4192 67.0812 79.4192 65.8714V52.7102C79.4192 51.5004 78.4354 50.5166 77.2256 50.5166H61.8708C60.6611 50.5166 59.6772 51.5004 59.6772 52.7102V65.8714C59.6772 67.0812 60.6611 68.065 61.8708 68.065ZM68.4514 52.7102H70.645V54.9037H68.4514V52.7102ZM61.8708 52.7102H66.2579V54.9037C66.2579 56.1134 67.2417 57.0972 68.4514 57.0972H70.645C71.8547 57.0972 72.8385 56.1134 72.8385 54.9037V52.7102H77.2256L77.2267 65.8714H61.8708V52.7102Z" fill="#2D314F"/>
<path d="M75.0324 61.4834H72.8389V63.6769H75.0324V61.4834Z" fill="#2D314F"/>
<path d="M70.6452 61.4834H68.4517V63.6769H70.6452V61.4834Z" fill="#2D314F"/>
</svg>
