<svg width="111" height="111" viewBox="0 0 111 111" fill="none" xmlns="http://www.w3.org/2000/svg">
<circle cx="55.5" cy="55.5" r="54.5" stroke="#FFCC00" stroke-width="2"/>
<path d="M78.9501 74.8329H59.9668C59.6706 74.8329 59.3866 74.7153 59.1772 74.5059C58.9677 74.2965 58.8501 74.0124 58.8501 73.7163C58.8501 73.4201 58.9677 73.1361 59.1772 72.9267C59.3866 72.7173 59.6706 72.5996 59.9668 72.5996H78.9501C79.2463 72.5996 79.5303 72.7173 79.7397 72.9267C79.9491 73.1361 80.0668 73.4201 80.0668 73.7163C80.0668 74.0124 79.9491 74.2965 79.7397 74.5059C79.5303 74.7153 79.2463 74.8329 78.9501 74.8329Z" fill="#2D314F"/>
<path d="M55.5 23.4667C55.2038 23.4667 54.9198 23.349 54.7104 23.1396C54.5009 22.9302 54.3833 22.6462 54.3833 22.35V20.1167C54.3833 19.8205 54.5009 19.5365 54.7104 19.3271C54.9198 19.1176 55.2038 19 55.5 19C55.7961 19 56.0802 19.1176 56.2896 19.3271C56.499 19.5365 56.6166 19.8205 56.6166 20.1167V22.35C56.6166 22.6462 56.499 22.9302 56.2896 23.1396C56.0802 23.349 55.7961 23.4667 55.5 23.4667Z" fill="#2D314F"/>
<path d="M48.2415 25.412C48.0453 25.4122 47.8525 25.3606 47.6825 25.2626C47.5126 25.1646 47.3714 25.0235 47.2733 24.8536L46.1567 22.9196C46.0109 22.6632 45.9725 22.3596 46.0498 22.0751C46.127 21.7905 46.3137 21.548 46.5691 21.4006C46.8244 21.2532 47.1278 21.2127 47.4128 21.2881C47.6979 21.3634 47.9416 21.5485 48.0907 21.8029L49.2074 23.737C49.3054 23.9066 49.357 24.0991 49.357 24.295C49.3571 24.4909 49.3056 24.6834 49.2077 24.8531C49.1098 25.0229 48.969 25.1638 48.7994 25.2619C48.6298 25.36 48.4374 25.4118 48.2415 25.412Z" fill="#2D314F"/>
<path d="M62.7581 25.412C62.5622 25.4118 62.3698 25.36 62.2002 25.2619C62.0306 25.1638 61.8898 25.0229 61.7919 24.8531C61.694 24.6834 61.6425 24.4909 61.6426 24.295C61.6426 24.0991 61.6942 23.9066 61.7922 23.737L62.9088 21.8029C63.058 21.5485 63.3017 21.3634 63.5868 21.2881C63.8718 21.2127 64.1752 21.2532 64.4305 21.4006C64.6859 21.548 64.8726 21.7905 64.9498 22.0751C65.0271 22.3596 64.9887 22.6632 64.8429 22.9196L63.7262 24.8536C63.6281 25.0235 63.487 25.1646 63.317 25.2626C63.1471 25.3606 62.9543 25.4122 62.7581 25.412Z" fill="#2D314F"/>
<path d="M87.8833 36.8666H84.5333V33.5166C84.5333 33.2204 84.4157 32.9364 84.2063 32.727C83.9969 32.5176 83.7128 32.3999 83.4167 32.3999H65.7063C64.8455 30.4788 63.4675 28.8349 61.7263 27.6518C59.9851 26.4686 57.9492 25.7929 55.8462 25.6999C54.3504 25.6484 52.8597 25.9009 51.4643 26.4422C50.0689 26.9835 48.7978 27.8022 47.728 28.8489C46.6832 29.8616 45.8451 31.0676 45.2602 32.3999H27.5833C27.2872 32.3999 27.0031 32.5176 26.7937 32.727C26.5843 32.9364 26.4667 33.2204 26.4667 33.5166V36.8666H23.1167C22.8205 36.8666 22.5365 36.9842 22.3271 37.1936C22.1176 37.4031 22 37.6871 22 37.9832V82.6499C22 82.9461 22.1176 83.2301 22.3271 83.4395C22.5365 83.6489 22.8205 83.7666 23.1167 83.7666H50.7877C51.4476 83.7626 52.0934 83.9572 52.6413 84.3249L54.8858 85.8101C55.0688 85.9338 55.2847 85.9999 55.5056 85.9999C55.7265 85.9999 55.9423 85.9338 56.1253 85.8101L58.2805 84.3472C58.8364 83.9675 59.4944 83.765 60.1677 83.7666H87.8833C88.1795 83.7666 88.4635 83.6489 88.6729 83.4395C88.8824 83.2301 89 82.9461 89 82.6499V37.9832C89 37.6871 88.8824 37.4031 88.6729 37.1936C88.4635 36.9842 88.1795 36.8666 87.8833 36.8666ZM49.2802 30.4569C50.137 29.6194 51.1546 28.964 52.2715 28.5303C53.3885 28.0966 54.5816 27.8935 55.7792 27.9332C58.0422 28.0334 60.1857 28.9774 61.7874 30.5792C63.3892 32.1809 64.3331 34.3244 64.4333 36.5874C64.4933 38.2769 64.069 39.9482 63.2103 41.4044C62.3516 42.8606 61.0944 44.0409 59.587 44.8061C59.0325 45.086 58.5661 45.5135 58.239 46.0416C57.912 46.5696 57.737 47.1776 57.7333 47.7987V48.0332H56.6167V37.9832C56.6167 37.6871 56.7343 37.4031 56.9437 37.1936C57.1531 36.9842 57.4372 36.8666 57.7333 36.8666C58.0295 36.8666 58.3135 36.9842 58.5229 37.1936C58.7324 37.4031 58.85 37.6871 58.85 37.9832C58.85 38.2794 58.9676 38.5634 59.1771 38.7728C59.3865 38.9823 59.6705 39.0999 59.9667 39.0999C60.2628 39.0999 60.5469 38.9823 60.7563 38.7728C60.9657 38.5634 61.0833 38.2794 61.0833 37.9832C61.0807 37.0956 60.7269 36.245 60.0992 35.6174C59.4715 34.9897 58.621 34.6359 57.7333 34.6332C56.9064 34.6354 56.11 34.946 55.5 35.5042C54.89 34.946 54.0936 34.6354 53.2667 34.6332C52.379 34.6359 51.5285 34.9897 50.9008 35.6174C50.2731 36.245 49.9193 37.0956 49.9167 37.9832C49.9167 38.2794 50.0343 38.5634 50.2437 38.7728C50.4531 38.9823 50.7372 39.0999 51.0333 39.0999C51.3295 39.0999 51.6135 38.9823 51.8229 38.7728C52.0324 38.5634 52.15 38.2794 52.15 37.9832C52.15 37.6871 52.2676 37.4031 52.4771 37.1936C52.6865 36.9842 52.9705 36.8666 53.2667 36.8666C53.5628 36.8666 53.8469 36.9842 54.0563 37.1936C54.2657 37.4031 54.3833 37.6871 54.3833 37.9832V48.0332H53.2667V47.7987C53.2631 47.1762 53.0869 46.5669 52.7577 46.0385C52.4285 45.5102 51.9591 45.0836 51.4018 44.8061C50.1427 44.1559 49.0563 43.2155 48.2324 42.0625C47.4085 40.9095 46.8707 39.5771 46.6634 38.1753C46.4562 36.7734 46.5854 35.3424 47.0403 34.0003C47.4953 32.6582 48.2631 31.4437 49.2802 30.4569ZM51.0333 52.4999V50.2666H59.9667V52.4999H51.0333ZM57.4318 54.7332C57.2355 55.0717 56.9537 55.3526 56.6147 55.5479C56.2756 55.7432 55.8913 55.846 55.5 55.846C55.1087 55.846 54.7244 55.7432 54.3853 55.5479C54.0463 55.3526 53.7645 55.0717 53.5682 54.7332H57.4318ZM28.7 34.6332H44.5567C44.4089 35.3685 44.3341 36.1166 44.3333 36.8666C44.3279 38.9172 44.8905 40.9292 45.9588 42.6795C47.0271 44.4298 48.5594 45.85 50.3857 46.7826C50.5759 46.8769 50.7368 47.0214 50.851 47.2005C50.9651 47.3796 51.0282 47.5864 51.0333 47.7987V48.0332H49.9167C49.6205 48.0332 49.3365 48.1509 49.1271 48.3603C48.9176 48.5697 48.8 48.8538 48.8 49.1499V53.6166C48.8 53.9127 48.9176 54.1968 49.1271 54.4062C49.3365 54.6156 49.6205 54.7332 49.9167 54.7332H51.1897C51.4335 55.6914 51.9896 56.541 52.7702 57.1479C53.5508 57.7547 54.5113 58.0842 55.5 58.0842C56.4887 58.0842 57.4492 57.7547 58.2298 57.1479C59.0104 56.541 59.5665 55.6914 59.8103 54.7332H61.0833C61.3795 54.7332 61.6635 54.6156 61.8729 54.4062C62.0824 54.1968 62.2 53.9127 62.2 53.6166V49.1499C62.2 48.8538 62.0824 48.5697 61.8729 48.3603C61.6635 48.1509 61.3795 48.0332 61.0833 48.0332H59.9667V47.7987C59.9706 47.5876 60.0333 47.3817 60.1477 47.2042C60.2621 47.0267 60.4237 46.8846 60.6143 46.7937C62.4967 45.8355 64.0663 44.3595 65.1385 42.5396C66.2107 40.7197 66.7409 38.6314 66.6667 36.5204C66.6413 35.8853 66.5591 35.2537 66.421 34.6332H82.3V77.0666H60.19C59.0872 77.0666 58.0098 77.3972 57.0968 78.0157L56.6167 78.3284V63.6666C56.6167 63.3704 56.499 63.0864 56.2896 62.877C56.0802 62.6676 55.7962 62.5499 55.5 62.5499C55.2038 62.5499 54.9198 62.6676 54.7104 62.877C54.501 63.0864 54.3833 63.3704 54.3833 63.6666V78.3284L53.9032 78.0157C52.9902 77.3972 51.9128 77.0666 50.81 77.0666H28.7V34.6332ZM86.7667 81.5332H60.1677C59.0491 81.5318 57.956 81.8664 57.0298 82.4936L55.4888 83.5432L53.8808 82.4712C52.9674 81.855 51.8895 81.5281 50.7877 81.5332H24.2333V39.0999H26.4667V78.1832C26.4667 78.4794 26.5843 78.7634 26.7937 78.9728C27.0031 79.1823 27.2872 79.2999 27.5833 79.2999H50.81C51.4737 79.3047 52.1217 79.5026 52.6748 79.8694L54.8858 81.3434C55.0521 81.4569 55.2464 81.5221 55.4475 81.532C55.6485 81.5418 55.8483 81.4959 56.0248 81.3992L58.3252 79.8694C58.8783 79.5026 59.5263 79.3047 60.19 79.2999H83.4167C83.7128 79.2999 83.9969 79.1823 84.2063 78.9728C84.4157 78.7634 84.5333 78.4794 84.5333 78.1832V39.0999H86.7667V81.5332Z" fill="#2D314F"/>
<path d="M63.3169 65.9001H78.9502C79.2464 65.9001 79.5304 65.7824 79.7398 65.573C79.9492 65.3636 80.0669 65.0796 80.0669 64.7834V55.8501C80.0669 55.5539 79.9492 55.2699 79.7398 55.0605C79.5304 54.851 79.2464 54.7334 78.9502 54.7334H63.3169C63.0207 54.7334 62.7367 54.851 62.5273 55.0605C62.3178 55.2699 62.2002 55.5539 62.2002 55.8501V64.7834C62.2002 65.0796 62.3178 65.3636 62.5273 65.573C62.7367 65.7824 63.0207 65.9001 63.3169 65.9001ZM64.4335 56.9667H77.8335V63.6667H64.4335V56.9667Z" fill="#2D314F"/>
<path d="M32.0498 74.8337H51.0331C51.3293 74.8337 51.6133 74.716 51.8227 74.5066C52.0321 74.2972 52.1498 74.0131 52.1498 73.717V64.7837C52.1498 64.4875 52.0321 64.2035 51.8227 63.9941C51.6133 63.7846 51.3293 63.667 51.0331 63.667H32.0498C31.7536 63.667 31.4696 63.7846 31.2602 63.9941C31.0508 64.2035 30.9331 64.4875 30.9331 64.7837V73.717C30.9331 74.0131 31.0508 74.2972 31.2602 74.5066C31.4696 74.716 31.7536 74.8337 32.0498 74.8337ZM33.1664 65.9003H49.9164V72.6003H33.1664V65.9003Z" fill="#2D314F"/>
<path d="M59.9668 70.3671H78.9501C79.2463 70.3671 79.5303 70.2495 79.7397 70.0401C79.9491 69.8306 80.0668 69.5466 80.0668 69.2505C80.0668 68.9543 79.9491 68.6703 79.7397 68.4609C79.5303 68.2514 79.2463 68.1338 78.9501 68.1338H59.9668C59.6706 68.1338 59.3866 68.2514 59.1772 68.4609C58.9677 68.6703 58.8501 68.9543 58.8501 69.2505C58.8501 69.5466 58.9677 69.8306 59.1772 70.0401C59.3866 70.2495 59.6706 70.3671 59.9668 70.3671Z" fill="#2D314F"/>
<path d="M65.5498 48.0331H78.9498C79.2459 48.0331 79.53 47.9155 79.7394 47.7061C79.9488 47.4967 80.0664 47.2126 80.0664 46.9165C80.0664 46.6203 79.9488 46.3363 79.7394 46.1269C79.53 45.9175 79.2459 45.7998 78.9498 45.7998H65.5498C65.2536 45.7998 64.9696 45.9175 64.7602 46.1269C64.5508 46.3363 64.4331 46.6203 64.4331 46.9165C64.4331 47.2126 64.5508 47.4967 64.7602 47.7061C64.9696 47.9155 65.2536 48.0331 65.5498 48.0331Z" fill="#2D314F"/>
<path d="M65.5498 52.4999H78.9498C79.2459 52.4999 79.53 52.3823 79.7394 52.1729C79.9488 51.9635 80.0664 51.6794 80.0664 51.3833C80.0664 51.0871 79.9488 50.8031 79.7394 50.5937C79.53 50.3842 79.2459 50.2666 78.9498 50.2666H65.5498C65.2536 50.2666 64.9696 50.3842 64.7602 50.5937C64.5508 50.8031 64.4331 51.0871 64.4331 51.3833C64.4331 51.6794 64.5508 51.9635 64.7602 52.1729C64.9696 52.3823 65.2536 52.4999 65.5498 52.4999Z" fill="#2D314F"/>
<path d="M70.0166 39.0995H78.9499C79.2461 39.0995 79.5301 38.9819 79.7395 38.7725C79.9489 38.5631 80.0666 38.279 80.0666 37.9829C80.0666 37.6867 79.9489 37.4027 79.7395 37.1933C79.5301 36.9839 79.2461 36.8662 78.9499 36.8662H70.0166C69.7204 36.8662 69.4364 36.9839 69.227 37.1933C69.0175 37.4027 68.8999 37.6867 68.8999 37.9829C68.8999 38.279 69.0175 38.5631 69.227 38.7725C69.4364 38.9819 69.7204 39.0995 70.0166 39.0995Z" fill="#2D314F"/>
<path d="M68.3193 43.5663H78.95C79.2461 43.5663 79.5302 43.4487 79.7396 43.2393C79.949 43.0299 80.0666 42.7458 80.0666 42.4497C80.0666 42.1535 79.949 41.8695 79.7396 41.6601C79.5302 41.4507 79.2461 41.333 78.95 41.333H68.3193C68.0231 41.333 67.7391 41.4507 67.5297 41.6601C67.3203 41.8695 67.2026 42.1535 67.2026 42.4497C67.2026 42.7458 67.3203 43.0299 67.5297 43.2393C67.7391 43.4487 68.0231 43.5663 68.3193 43.5663Z" fill="#2D314F"/>
<path d="M32.0498 48.0331H45.4498C45.7459 48.0331 46.03 47.9155 46.2394 47.7061C46.4488 47.4967 46.5664 47.2126 46.5664 46.9165C46.5664 46.6203 46.4488 46.3363 46.2394 46.1269C46.03 45.9175 45.7459 45.7998 45.4498 45.7998H32.0498C31.7536 45.7998 31.4696 45.9175 31.2602 46.1269C31.0508 46.3363 30.9331 46.6203 30.9331 46.9165C30.9331 47.2126 31.0508 47.4967 31.2602 47.7061C31.4696 47.9155 31.7536 48.0331 32.0498 48.0331Z" fill="#2D314F"/>
<path d="M32.0498 39.0995H40.9831C41.2793 39.0995 41.5633 38.9819 41.7727 38.7725C41.9821 38.5631 42.0998 38.279 42.0998 37.9829C42.0998 37.6867 41.9821 37.4027 41.7727 37.1933C41.5633 36.9839 41.2793 36.8662 40.9831 36.8662H32.0498C31.7536 36.8662 31.4696 36.9839 31.2602 37.1933C31.0508 37.4027 30.9331 37.6867 30.9331 37.9829C30.9331 38.279 31.0508 38.5631 31.2602 38.7725C31.4696 38.9819 31.7536 39.0995 32.0498 39.0995Z" fill="#2D314F"/>
<path d="M32.0498 43.5663H42.6804C42.9766 43.5663 43.2606 43.4487 43.47 43.2393C43.6795 43.0299 43.7971 42.7458 43.7971 42.4497C43.7971 42.1535 43.6795 41.8695 43.47 41.6601C43.2606 41.4507 42.9766 41.333 42.6804 41.333H32.0498C31.7536 41.333 31.4696 41.4507 31.2602 41.6601C31.0508 41.8695 30.9331 42.1535 30.9331 42.4497C30.9331 42.7458 31.0508 43.0299 31.2602 43.2393C31.4696 43.4487 31.7536 43.5663 32.0498 43.5663Z" fill="#2D314F"/>
<path d="M32.0498 61.4335H51.0331C51.3293 61.4335 51.6133 61.3159 51.8227 61.1065C52.0321 60.897 52.1498 60.613 52.1498 60.3169C52.1498 60.0207 52.0321 59.7367 51.8227 59.5273C51.6133 59.3178 51.3293 59.2002 51.0331 59.2002H32.0498C31.7536 59.2002 31.4696 59.3178 31.2602 59.5273C31.0508 59.7367 30.9331 60.0207 30.9331 60.3169C30.9331 60.613 31.0508 60.897 31.2602 61.1065C31.4696 61.3159 31.7536 61.4335 32.0498 61.4335Z" fill="#2D314F"/>
<path d="M32.0498 56.9667H47.6831C47.9793 56.9667 48.2633 56.8491 48.4727 56.6397C48.6821 56.4303 48.7998 56.1462 48.7998 55.8501C48.7998 55.5539 48.6821 55.2699 48.4727 55.0605C48.2633 54.851 47.9793 54.7334 47.6831 54.7334H32.0498C31.7536 54.7334 31.4696 54.851 31.2602 55.0605C31.0508 55.2699 30.9331 55.5539 30.9331 55.8501C30.9331 56.1462 31.0508 56.4303 31.2602 56.6397C31.4696 56.8491 31.7536 56.9667 32.0498 56.9667Z" fill="#2D314F"/>
<path d="M32.0498 52.4999H45.4498C45.7459 52.4999 46.03 52.3823 46.2394 52.1729C46.4488 51.9635 46.5664 51.6794 46.5664 51.3833C46.5664 51.0871 46.4488 50.8031 46.2394 50.5937C46.03 50.3842 45.7459 50.2666 45.4498 50.2666H32.0498C31.7536 50.2666 31.4696 50.3842 31.2602 50.5937C31.0508 50.8031 30.9331 51.0871 30.9331 51.3833C30.9331 51.6794 31.0508 51.9635 31.2602 52.1729C31.4696 52.3823 31.7536 52.4999 32.0498 52.4999Z" fill="#2D314F"/>
<path d="M40.4363 29.4585L42.3704 30.5752C42.4974 30.6496 42.638 30.6983 42.7839 30.7182C42.9298 30.7382 43.0782 30.729 43.2206 30.6914C43.3629 30.6538 43.4965 30.5883 43.6134 30.4989C43.7304 30.4094 43.8286 30.2977 43.9022 30.1702C43.9758 30.0426 44.0235 29.9018 44.0425 29.7558C44.0615 29.6097 44.0514 29.4614 44.0128 29.3193C43.9742 29.1771 43.9079 29.0441 43.8177 28.9277C43.7274 28.8113 43.6151 28.7139 43.4871 28.6411L41.553 27.5244C41.426 27.45 41.2854 27.4013 41.1395 27.3814C40.9936 27.3614 40.8452 27.3705 40.7028 27.4082C40.5605 27.4458 40.4269 27.5113 40.3099 27.6007C40.193 27.6902 40.0948 27.8019 40.0212 27.9294C39.9476 28.057 39.8999 28.1978 39.8809 28.3438C39.8619 28.4899 39.872 28.6382 39.9106 28.7803C39.9492 28.9225 40.0155 29.0555 40.1057 29.1719C40.1959 29.2883 40.3083 29.3857 40.4363 29.4585Z" fill="#2D314F"/>
<path d="M68.0727 30.7252C68.2687 30.7256 68.4614 30.674 68.631 30.5756L70.5651 29.4589C70.8195 29.3098 71.0045 29.0661 71.0799 28.781C71.1553 28.4959 71.1148 28.1926 70.9674 27.9372C70.8199 27.6819 70.5775 27.4952 70.2929 27.4179C70.0083 27.3407 69.7047 27.3791 69.4484 27.5248L67.5143 28.6415C67.3015 28.7644 67.1351 28.9541 67.041 29.1812C66.947 29.4083 66.9305 29.6601 66.9941 29.8976C67.0577 30.135 67.1979 30.3448 67.3929 30.4944C67.5879 30.6441 67.8269 30.7252 68.0727 30.7252Z" fill="#2D314F"/>
</svg>
