<svg width="138" height="174" viewBox="0 0 138 174" fill="none" xmlns="http://www.w3.org/2000/svg">
<g clip-path="url(#clip0_8_157)">
<path d="M97.3241 50.0029C96.2293 50.0029 95.3591 49.133 95.3591 48.0387V28.2845C95.3591 11.5607 82.7269 3.9284 70.993 3.9284C59.259 3.9284 46.6268 11.5607 46.6268 28.2845V48.0387C46.6268 49.133 45.7566 50.0029 44.6618 50.0029C43.567 50.0029 42.6968 49.133 42.6968 48.0387V28.2845C42.6968 9.70876 56.9291 0 70.993 0C85.0568 0 99.2891 9.70876 99.2891 28.2845V48.0387C99.2891 49.133 98.4189 50.0029 97.3241 50.0029Z" fill="#3D3A70"/>
<path d="M138 159.773L114.308 167.462L106.476 45.1763L130.168 40.0693L138 159.773Z" fill="#F2A416"/>
<path d="M123.768 174H0L7.83198 52.1631H115.936L123.768 174Z" fill="#FFC021"/>
<path d="M61.8977 148.914C42.1353 148.914 26.0503 132.836 26.0503 113.082C26.0503 93.3274 42.1353 77.249 61.8977 77.249V81.1774C44.2968 81.1774 29.9803 95.488 29.9803 113.082C29.9803 130.675 44.2968 144.986 61.8977 144.986V148.914Z" fill="#706B96"/>
<path d="M61.8976 148.914C51.2865 148.914 43.0054 133.173 43.0054 113.082C43.0054 92.9907 51.3146 77.249 61.8976 77.249V81.1774C53.7849 81.1774 46.9354 95.7967 46.9354 113.082C46.9354 130.367 53.7849 144.986 61.8976 144.986V148.914Z" fill="#706B96"/>
<path d="M63.8626 79.2129H59.9326V146.95H63.8626V79.2129Z" fill="#706B96"/>
<path d="M61.8979 148.914V144.986C70.0106 144.986 76.8601 130.367 76.8601 113.082C76.8601 95.7967 70.0106 81.1774 61.8979 81.1774V77.249C72.509 77.249 80.7901 92.9907 80.7901 113.082C80.7901 133.173 72.4809 148.914 61.8979 148.914Z" fill="#706B96"/>
<path d="M61.8979 148.914V144.986C79.4988 144.986 93.8154 130.675 93.8154 113.082C93.8154 95.488 79.4988 81.1774 61.8979 81.1774V77.249C81.6604 77.249 97.7454 93.3274 97.7454 113.082C97.7454 132.836 81.6604 148.914 61.8979 148.914Z" fill="#706B96"/>
<path d="M95.7522 111.117H27.9873V115.046H95.7522V111.117Z" fill="#706B96"/>
<path d="M61.8979 101.24C51.4553 101.24 41.0126 98.9957 33.0684 94.478L35.0053 91.0547C49.8271 99.4446 73.9687 99.4727 88.7905 91.0547L90.7274 94.478C82.7832 98.9957 72.3405 101.24 61.8979 101.24Z" fill="#706B96"/>
<path d="M88.8183 134.183C73.9965 125.765 49.8549 125.765 35.0331 134.183L33.0962 130.759C48.9847 121.752 74.8667 121.752 90.7553 130.759L88.8183 134.183Z" fill="#706B96"/>
<path d="M7.83203 52.1628H22.9065V46.1299L7.83203 52.1628Z" fill="#FF8A41"/>
<path d="M112.904 47.1123V52.1631H115.936L112.904 47.1123Z" fill="#FF8A41"/>
<path d="M130.168 40.0693H22.0645L22.9066 46.1303V52.1632H112.904V47.1124L130.168 40.0693Z" fill="#F27729"/>
<path d="M88.2011 64.5662C87.1063 64.5662 86.236 63.6964 86.236 62.602V32.4095C86.236 15.6857 73.6038 8.0534 61.8699 8.0534C50.136 8.0534 37.5038 15.6857 37.5038 32.4095V62.602C37.5038 63.6964 36.6335 64.5662 35.5387 64.5662C34.4439 64.5662 33.5737 63.6964 33.5737 62.602V32.4095C33.5737 13.8338 47.806 4.125 61.8699 4.125C75.9338 4.125 90.1661 13.8338 90.1661 32.4095V62.602C90.1661 63.6964 89.2959 64.5662 88.2011 64.5662Z" fill="#706B96"/>
</g>
<defs>
<clipPath id="clip0_8_157">
<rect width="138" height="174" fill="white"/>
</clipPath>
</defs>
</svg>
