<svg width="35" height="35" viewBox="0 0 35 35" fill="none" xmlns="http://www.w3.org/2000/svg">
<circle cx="17.5" cy="17.5" r="16.5" fill="white" stroke="#2D314F" stroke-width="2"/>
<path d="M13 24.98V22.88L19.16 17.39C19.64 16.9633 19.9733 16.56 20.16 16.18C20.3467 15.8 20.44 15.4333 20.44 15.08C20.44 14.6 20.3367 14.1733 20.13 13.8C19.9233 13.42 19.6367 13.12 19.27 12.9C18.91 12.68 18.4933 12.57 18.02 12.57C17.52 12.57 17.0767 12.6867 16.69 12.92C16.31 13.1467 16.0133 13.45 15.8 13.83C15.5867 14.21 15.4867 14.62 15.5 15.06H13.02C13.02 14.1 13.2333 13.2633 13.66 12.55C14.0933 11.8367 14.6867 11.2833 15.44 10.89C16.2 10.4967 17.0767 10.3 18.07 10.3C18.99 10.3 19.8167 10.5067 20.55 10.92C21.2833 11.3267 21.86 11.8933 22.28 12.62C22.7 13.34 22.91 14.17 22.91 15.11C22.91 15.7967 22.8167 16.3733 22.63 16.84C22.4433 17.3067 22.1633 17.7367 21.79 18.13C21.4233 18.5233 20.9667 18.96 20.42 19.44L16.05 23.31L15.83 22.71H22.91V24.98H13Z" fill="#2D314F"/>
</svg>
