<svg width="35" height="35" viewBox="0 0 35 35" fill="none" xmlns="http://www.w3.org/2000/svg">
<circle cx="17.5" cy="17.5" r="16.5" fill="white" stroke="#2D314F" stroke-width="2"/>
<path d="M17.52 25.27C16.8 25.27 16.12 25.13 15.48 24.85C14.84 24.57 14.2833 24.1733 13.81 23.66C13.3433 23.1467 13.0067 22.54 12.8 21.84L15.13 21.21C15.2967 21.7833 15.6 22.2267 16.04 22.54C16.4867 22.8467 16.9767 22.9967 17.51 22.99C17.9833 22.99 18.4067 22.88 18.78 22.66C19.1533 22.44 19.4467 22.1433 19.66 21.77C19.8733 21.39 19.98 20.9667 19.98 20.5C19.98 19.7867 19.75 19.19 19.29 18.71C18.83 18.23 18.2367 17.99 17.51 17.99C17.29 17.99 17.0733 18.02 16.86 18.08C16.6533 18.14 16.4533 18.2233 16.26 18.33L15.16 16.43L20 12.29L20.21 12.87H13.36V10.6H22.19V12.88L18.3 16.62L18.28 15.91C19.1533 15.97 19.8967 16.2133 20.51 16.64C21.13 17.0667 21.6033 17.6167 21.93 18.29C22.2633 18.9633 22.43 19.7 22.43 20.5C22.43 21.4067 22.2067 22.22 21.76 22.94C21.32 23.66 20.7267 24.23 19.98 24.65C19.24 25.0633 18.42 25.27 17.52 25.27Z" fill="#2D314F"/>
</svg>
