<svg width="136" height="139" viewBox="0 0 136 139" fill="none" xmlns="http://www.w3.org/2000/svg">
<g clip-path="url(#clip0_8_139)">
<path d="M128.064 36.8087H0.866211V8.81493C0.866211 4.35386 7.38738 0.695312 11.8133 0.695312H108.101L128.064 36.8087Z" fill="#F27729"/>
<path d="M43.854 0.695312H119.989C124.415 0.695312 128.041 4.35386 128.041 8.81493V40.0896L43.854 0.695312Z" fill="#F27729"/>
<path d="M0.913295 20.5693C0.913295 25.0304 7.38738 28.689 11.8133 28.689H120.013C124.439 28.689 128.064 32.3475 128.064 36.8086V129.925C128.064 134.386 124.439 138.044 120.013 138.044H11.8133C7.38738 138.044 0.866211 134.386 0.866211 129.925L0.913295 20.5693Z" fill="#FF8A41"/>
<path d="M3.8088 27.249C3.8088 31.7101 7.38721 35.3686 11.8131 35.3686H113.397C117.823 35.3686 121.449 39.0272 121.449 43.4883V123.268C121.449 127.729 117.823 131.388 113.397 131.388H11.8131C7.38721 131.388 3.76172 127.729 3.76172 123.268L3.8088 27.2726V27.249Z" fill="#FF8A41"/>
<path d="M4.13818 31.2379C3.43192 31.2379 2.77274 30.7659 2.56086 30.0577C2.3019 29.1608 2.16064 28.2167 2.16064 27.2489C2.16064 26.2812 2.89045 25.5967 3.80859 25.5967C4.72674 25.5967 5.45654 26.3284 5.45654 27.2489C5.45654 27.8862 5.55071 28.4999 5.71551 29.1136C5.97447 29.9869 5.48008 30.9075 4.60903 31.1671C4.44423 31.2143 4.30298 31.2379 4.13818 31.2379Z" fill="#855641"/>
<path d="M108.736 133.017H103.98C103.062 133.017 102.333 132.285 102.333 131.364C102.333 130.444 103.062 129.712 103.98 129.712H108.736C109.654 129.712 110.384 130.444 110.384 131.364C110.384 132.285 109.654 133.017 108.736 133.017ZM96.8237 133.017H92.0682C91.15 133.017 90.4202 132.285 90.4202 131.364C90.4202 130.444 91.15 129.712 92.0682 129.712H96.8237C97.7418 129.712 98.4716 130.444 98.4716 131.364C98.4716 132.285 97.7418 133.017 96.8237 133.017ZM84.9114 133.017H80.1559C79.2377 133.017 78.5079 132.285 78.5079 131.364C78.5079 130.444 79.2377 129.712 80.1559 129.712H84.9114C85.8295 129.712 86.5593 130.444 86.5593 131.364C86.5593 132.285 85.8295 133.017 84.9114 133.017ZM72.9991 133.017H68.2435C67.3254 133.017 66.5956 132.285 66.5956 131.364C66.5956 130.444 67.3254 129.712 68.2435 129.712H72.9991C73.9172 129.712 74.647 130.444 74.647 131.364C74.647 132.285 73.9172 133.017 72.9991 133.017ZM61.0867 133.017H56.3312C55.4131 133.017 54.6833 132.285 54.6833 131.364C54.6833 130.444 55.4131 129.712 56.3312 129.712H61.0867C62.0049 129.712 62.7347 130.444 62.7347 131.364C62.7347 132.285 62.0049 133.017 61.0867 133.017ZM49.1744 133.017H44.4189C43.5008 133.017 42.771 132.285 42.771 131.364C42.771 130.444 43.5008 129.712 44.4189 129.712H49.1744C50.0926 129.712 50.8224 130.444 50.8224 131.364C50.8224 132.285 50.0926 133.017 49.1744 133.017ZM37.2621 133.017H32.5066C31.5884 133.017 30.8586 132.285 30.8586 131.364C30.8586 130.444 31.5884 129.712 32.5066 129.712H37.2621C38.1802 129.712 38.91 130.444 38.91 131.364C38.91 132.285 38.1802 133.017 37.2621 133.017ZM25.3498 133.017H20.5943C19.6761 133.017 18.9463 132.285 18.9463 131.364C18.9463 130.444 19.6761 129.712 20.5943 129.712H25.3498C26.2679 129.712 26.9977 130.444 26.9977 131.364C26.9977 132.285 26.2679 133.017 25.3498 133.017ZM13.4375 133.017H11.766C10.5182 133.017 9.29405 132.78 8.11694 132.308C7.26942 131.954 6.86921 130.987 7.22234 130.16C7.57547 129.311 8.51716 128.909 9.36467 129.264C10.118 129.57 10.9185 129.736 11.7424 129.736H13.4139C14.3321 129.736 15.0619 130.467 15.0619 131.388C15.0619 132.308 14.3321 133.04 13.4139 133.04L13.4375 133.017ZM115.775 132.639C115.069 132.639 114.433 132.19 114.198 131.482C113.915 130.609 114.386 129.688 115.257 129.405C116.458 129.004 117.517 128.272 118.318 127.257C118.883 126.549 119.919 126.431 120.625 126.998C121.331 127.564 121.449 128.603 120.884 129.311C119.683 130.845 118.082 131.954 116.246 132.544C116.081 132.592 115.916 132.615 115.752 132.615L115.775 132.639ZM121.378 123.197C120.46 123.197 119.73 122.466 119.73 121.545V116.777C119.73 115.857 120.46 115.125 121.378 115.125C122.296 115.125 123.026 115.857 123.026 116.777V121.545C123.026 122.466 122.296 123.197 121.378 123.197ZM121.378 111.254C120.46 111.254 119.73 110.522 119.73 109.602V104.834C119.73 103.913 120.46 103.182 121.378 103.182C122.296 103.182 123.026 103.913 123.026 104.834V109.602C123.026 110.522 122.296 111.254 121.378 111.254ZM121.378 99.3106C120.46 99.3106 119.73 98.5789 119.73 97.6584V92.8905C119.73 91.97 120.46 91.2382 121.378 91.2382C122.296 91.2382 123.026 91.97 123.026 92.8905V97.6584C123.026 98.5789 122.296 99.3106 121.378 99.3106ZM121.378 87.3673C120.46 87.3673 119.73 86.6356 119.73 85.715V80.9471C119.73 80.0266 120.46 79.2948 121.378 79.2948C122.296 79.2948 123.026 80.0266 123.026 80.9471V85.715C123.026 86.6356 122.296 87.3673 121.378 87.3673ZM121.378 75.4239C120.46 75.4239 119.73 74.6922 119.73 73.7716V69.0037C119.73 68.0832 120.46 67.3515 121.378 67.3515C122.296 67.3515 123.026 68.0832 123.026 69.0037V73.7716C123.026 74.6922 122.296 75.4239 121.378 75.4239ZM121.378 63.4805C120.46 63.4805 119.73 62.7488 119.73 61.8282V57.0603C119.73 56.1398 120.46 55.4081 121.378 55.4081C122.296 55.4081 123.026 56.1398 123.026 57.0603V61.8282C123.026 62.7488 122.296 63.4805 121.378 63.4805ZM121.378 51.5371C120.46 51.5371 119.73 50.8054 119.73 49.8848V45.1169C119.73 44.1964 120.46 43.4647 121.378 43.4647C122.296 43.4647 123.026 44.1964 123.026 45.1169V49.8848C123.026 50.8054 122.296 51.5371 121.378 51.5371ZM119.589 40.0186C119.118 40.0186 118.624 39.8061 118.294 39.4049C117.494 38.3899 116.411 37.6582 115.21 37.2805C114.339 36.9973 113.868 36.0768 114.127 35.2034C114.41 34.3301 115.328 33.858 116.199 34.1177C118.035 34.7078 119.636 35.7935 120.86 37.3278C121.425 38.0359 121.308 39.0744 120.601 39.6409C120.295 39.8769 119.942 39.995 119.565 39.995L119.589 40.0186ZM108.618 36.9737H103.863C102.945 36.9737 102.215 36.242 102.215 35.3215C102.215 34.4009 102.945 33.6692 103.863 33.6692H108.618C109.536 33.6692 110.266 34.4009 110.266 35.3215C110.266 36.242 109.536 36.9737 108.618 36.9737ZM96.706 36.9737H91.9505C91.0323 36.9737 90.3025 36.242 90.3025 35.3215C90.3025 34.4009 91.0323 33.6692 91.9505 33.6692H96.706C97.6241 33.6692 98.3539 34.4009 98.3539 35.3215C98.3539 36.242 97.6241 36.9737 96.706 36.9737ZM84.7937 36.9737H80.0382C79.12 36.9737 78.3902 36.242 78.3902 35.3215C78.3902 34.4009 79.12 33.6692 80.0382 33.6692H84.7937C85.7118 33.6692 86.4416 34.4009 86.4416 35.3215C86.4416 36.242 85.7118 36.9737 84.7937 36.9737ZM72.8813 36.9737H68.1258C67.2077 36.9737 66.4779 36.242 66.4779 35.3215C66.4779 34.4009 67.2077 33.6692 68.1258 33.6692H72.8813C73.7995 33.6692 74.5293 34.4009 74.5293 35.3215C74.5293 36.242 73.7995 36.9737 72.8813 36.9737ZM60.969 36.9737H56.2135C55.2954 36.9737 54.5656 36.242 54.5656 35.3215C54.5656 34.4009 55.2954 33.6692 56.2135 33.6692H60.969C61.8872 33.6692 62.617 34.4009 62.617 35.3215C62.617 36.242 61.8872 36.9737 60.969 36.9737ZM49.0567 36.9737H44.3012C43.3831 36.9737 42.6532 36.242 42.6532 35.3215C42.6532 34.4009 43.3831 33.6692 44.3012 33.6692H49.0567C49.9748 33.6692 50.7047 34.4009 50.7047 35.3215C50.7047 36.242 49.9748 36.9737 49.0567 36.9737ZM37.1444 36.9737H32.3889C31.4707 36.9737 30.7409 36.242 30.7409 35.3215C30.7409 34.4009 31.4707 33.6692 32.3889 33.6692H37.1444C38.0625 33.6692 38.7923 34.4009 38.7923 35.3215C38.7923 36.242 38.0625 36.9737 37.1444 36.9737ZM25.2321 36.9737H20.4766C19.5584 36.9737 18.8286 36.242 18.8286 35.3215C18.8286 34.4009 19.5584 33.6692 20.4766 33.6692H25.2321C26.1502 33.6692 26.88 34.4009 26.88 35.3215C26.88 36.242 26.1502 36.9737 25.2321 36.9737ZM13.3198 36.9737H11.6953C10.4241 36.9737 9.17634 36.7141 7.99923 36.242C7.15171 35.8879 6.77504 34.9202 7.12817 34.0705C7.4813 33.2207 8.44653 32.8431 9.29405 33.1735C10.0709 33.504 10.8714 33.6456 11.7189 33.6456H13.3433C14.2614 33.6456 14.9912 34.3773 14.9912 35.2979C14.9912 36.2184 14.2614 36.9501 13.3433 36.9501L13.3198 36.9737Z" fill="#855641"/>
<path d="M4.09131 127.233C3.38504 127.233 2.72586 126.761 2.51399 126.053C2.23148 125.156 2.11377 124.188 2.11377 123.244C2.11377 122.3 2.84358 121.592 3.76172 121.592C4.67986 121.592 5.40967 122.323 5.40967 123.244C5.40967 123.881 5.50384 124.495 5.69217 125.109C5.95114 125.982 5.45675 126.903 4.58569 127.162C4.4209 127.209 4.27965 127.233 4.11485 127.233H4.09131Z" fill="#855641"/>
<path d="M125.145 21.3016H6.65771C5.73957 21.3016 5.00977 20.5699 5.00977 19.6493C5.00977 18.7288 5.73957 17.9971 6.65771 17.9971H125.145C126.063 17.9971 126.793 18.7288 126.793 19.6493C126.793 20.5699 126.063 21.3016 125.145 21.3016Z" fill="#714836"/>
<path d="M125.145 11.8123H6.65771C5.73957 11.8123 5.00977 11.0806 5.00977 10.1601C5.00977 9.23952 5.73957 8.50781 6.65771 8.50781H125.145C126.063 8.50781 126.793 9.23952 126.793 10.1601C126.793 11.0806 126.063 11.8123 125.145 11.8123Z" fill="#714836"/>
<path d="M70.7158 84.2521C70.7158 89.8225 75.2359 94.4016 80.7683 94.4016H131.407C136.94 94.4016 136.94 67.0215 131.407 67.0215H80.7683C75.2359 67.0215 70.7158 71.577 70.7158 77.171V84.2757V84.2521Z" fill="#FFC021"/>
<path d="M70.7158 84.2521C70.7158 89.8225 75.2359 94.4016 80.7683 94.4016H131.407C136.94 94.4016 136.94 67.0215 131.407 67.0215H80.7683C75.2359 67.0215 70.7158 71.577 70.7158 77.171V84.2757V84.2521Z" fill="#FFC021"/>
<path d="M89.8321 80.7114C89.8321 84.3463 86.9129 87.2967 83.2874 87.2967C79.6619 87.2967 76.7427 84.3463 76.7427 80.7114C76.7427 77.0764 79.6619 74.126 83.2874 74.126C86.9129 74.126 89.8321 77.0764 89.8321 80.7114Z" fill="#714836"/>
</g>
<defs>
<clipPath id="clip0_8_139">
<rect width="134.685" height="137.325" fill="white" transform="translate(0.866211 0.695312)"/>
</clipPath>
</defs>
</svg>
