<svg width="111" height="111" viewBox="0 0 111 111" fill="none" xmlns="http://www.w3.org/2000/svg">
<circle cx="55.5" cy="55.5" r="54.5" stroke="#FFCC00" stroke-width="2"/>
<path d="M89.984 47.0727C89.984 45.7325 89.4115 44.4427 88.4146 43.5354C87.4191 42.6296 86.0712 42.186 84.7424 42.3093C82.3147 42.5385 80.4135 44.7133 80.4135 47.2605L80.4143 56.0969C79.7843 56.3045 79.2073 56.634 78.746 57.0969C78.651 57.1843 76.4064 59.2472 75.8869 59.7759C75.5267 60.1422 75.1612 60.5223 74.7887 60.9093C72.9672 62.8052 71.0828 64.7654 68.9249 66.0313C68.4222 66.3248 67.9295 66.5961 67.449 66.8597C64.973 68.2207 62.6342 69.5066 61.0985 72.6669C59.7698 75.385 59.1965 78.6479 59.2939 82.9324L59.0272 88.4169C58.9912 89.1602 59.5835 89.7825 60.3276 89.7825C61.0219 89.7825 61.5951 89.2376 61.6288 88.5434L61.897 83.0121C61.897 82.9837 61.8978 82.9546 61.8978 82.9263C61.8043 79.0472 62.2932 76.1513 63.4389 73.8079C64.6144 71.3894 66.4183 70.3978 68.7027 69.1418C69.2031 68.8675 69.7157 68.5847 70.2399 68.2782C72.7105 66.8291 74.8117 64.6428 76.6662 62.7132C77.031 62.3339 77.3896 61.9607 77.7436 61.6005C78.1368 61.1997 79.8717 59.5974 80.5468 58.9759C81.2112 58.3123 82.3814 58.3123 83.0465 58.9759C83.3791 59.3085 83.5623 59.7537 83.563 60.2296C83.563 60.7047 83.3814 61.1492 83.0511 61.4794L73.135 71.3955C72.7067 71.8239 72.63 72.4914 72.9504 73.0056C73.0224 73.1213 73.1205 73.2684 73.263 73.424C73.65 73.8462 74.2477 73.9926 74.7711 73.7612C75.2539 73.5481 75.506 73.1198 75.5382 72.6745L76.0999 72.1128L84.7156 63.4971C86.0773 62.1354 86.5371 60.051 85.7102 58.3115C85.1378 57.1076 84.1462 56.3789 83.0174 56.0509L83.0167 47.2613C83.0167 46.0428 83.8818 45.0068 84.9853 44.9025C85.0566 44.8956 85.1271 44.8926 85.1976 44.8926C85.7401 44.8926 86.2528 45.0911 86.6605 45.4619C87.1164 45.8773 87.3785 46.4643 87.3785 47.0735V67.4444C87.3785 67.9617 87.2099 68.5272 86.8107 68.7977L86.1693 69.4391L75.6179 79.9921C75.2163 80.3928 74.8531 80.7461 74.483 80.986C74.1404 81.2082 73.8883 81.5446 73.8347 81.9492L72.991 88.3096C72.8875 89.0897 73.4944 89.7825 74.2814 89.7825C74.9343 89.7825 75.4861 89.2989 75.5719 88.6514L76.3413 82.8535C76.7819 82.5086 77.1597 82.1308 77.4586 81.8327L88.6644 70.6269C88.9778 70.3135 89.302 69.9886 89.6054 69.6146C89.8805 69.2752 90.0621 69.2307 89.9533 68.8391C90.0353 68.5157 89.984 67.7916 89.984 67.4437V47.0727Z" fill="#2D314F"/>
<path d="M21.3944 69.6153C21.7048 69.9977 22.0466 70.3387 22.347 70.6391L33.5413 81.8341C33.8394 82.1322 34.2179 82.51 34.6586 82.8541L35.4272 88.652C35.513 89.2996 36.0647 89.7831 36.7176 89.7831C37.5047 89.7831 38.1116 89.0904 38.0081 88.3103L37.1644 81.9499C37.1108 81.5452 36.8586 81.2088 36.5161 80.9866C36.146 80.746 35.7827 80.3935 35.3812 79.9927L24.8291 69.439L24.1876 68.7968C23.7884 68.5263 23.6198 67.9616 23.6198 67.4443V47.0726C23.6198 46.4634 23.8819 45.8764 24.3378 45.461C24.7455 45.0902 25.2582 44.8917 25.8 44.8917C25.8705 44.8917 25.941 44.8947 26.0122 44.9016C27.1165 45.0059 27.9817 46.0419 27.9817 47.2604V56.05C26.8529 56.3772 25.8605 57.1067 25.2888 58.3106C24.462 60.0501 24.9218 62.1345 26.2843 63.4962L34.8992 72.1112L35.4295 72.6414C35.4479 73.0476 35.6578 73.4468 36.0533 73.699C36.5782 74.0338 37.2495 73.9227 37.6847 73.4775C37.8533 73.3051 37.9683 73.1349 38.0495 73.0039C38.3698 72.4897 38.294 71.8223 37.8648 71.3939L27.9487 61.4801C27.6177 61.149 27.4368 60.7053 27.4368 60.2302C27.4376 59.7543 27.6215 59.3091 27.9533 58.9765C28.6177 58.3129 29.7488 58.2746 30.4921 59.0141C31.1274 59.598 32.8623 61.2011 33.257 61.6019C33.6102 61.9613 33.9689 62.3345 34.3344 62.7146C36.1881 64.6434 38.2886 66.8289 40.7607 68.2788C41.2833 68.5846 41.7968 68.8666 42.2964 69.1409C44.58 70.3969 46.3847 71.3885 47.561 73.8093C48.7059 76.1496 49.1948 79.0463 49.1013 82.9254C49.1013 82.9537 49.102 82.9828 49.102 83.0112L49.3703 88.5425C49.404 89.236 49.9764 89.7816 50.6707 89.7816C51.4148 89.7816 52.0071 89.1593 51.9711 88.4168L51.7044 82.9315C51.8025 78.647 51.2286 75.3841 49.9005 72.6683C48.3641 69.5049 46.0253 68.2198 43.5493 66.8588C43.0689 66.5945 42.5761 66.3239 42.0749 66.0312C39.9155 64.7645 38.0319 62.8043 36.2103 60.9092C35.8379 60.5214 35.4724 60.1406 35.1122 59.775C34.5911 59.2447 32.3481 57.1834 32.2922 57.1335C31.8063 56.6477 31.2193 56.309 30.5841 56.0983V47.2611C30.5841 44.7139 28.6828 42.5391 26.2552 42.31C24.0873 42.1069 21.9439 43.3943 21.2113 45.6963C21.0718 46.1392 21.0159 46.6075 21.0159 47.0726V67.4435C21.0159 67.7914 20.9645 68.5164 21.0465 68.839C20.9385 69.2313 21.1193 69.2758 21.3944 69.6153Z" fill="#2D314F"/>
<path d="M71.3588 37.5708C73.4179 36.3815 74.126 33.7392 72.9374 31.6794L71.8799 29.8471C71.112 28.5168 69.6798 27.6899 68.1433 27.6899C67.3893 27.6899 66.6444 27.8899 65.9892 28.2677L65.2904 28.6708C65.2674 28.6838 65.2474 28.6869 65.2344 28.6869C63.9087 27.6187 62.4627 26.7841 60.9024 26.1964C60.8948 26.1933 60.871 26.1642 60.871 26.1182V25.3128C60.871 22.9349 58.9361 21 56.5582 21H54.4424C52.0645 21 50.1296 22.9349 50.1296 25.3128V26.119C50.1296 26.1657 50.1058 26.1941 50.0982 26.1971C48.538 26.7849 47.0919 27.6194 45.7999 28.6777C45.7808 28.6815 45.7662 28.6831 45.7547 28.6831C45.734 28.6831 45.7218 28.6785 45.7103 28.6716L45.0122 28.2685C44.357 27.8907 43.6121 27.6907 42.8581 27.6907C41.3208 27.6907 39.8886 28.5168 39.1207 29.8479L38.0632 31.6801C36.8747 33.7392 37.5827 36.3822 39.6418 37.5708L40.3323 37.97C40.3691 37.9915 40.3859 38.0237 40.3829 38.0428C40.2465 38.8635 40.1775 39.6988 40.1775 40.5257C40.1775 41.3525 40.2465 42.1878 40.3829 43.0085C40.3859 43.0277 40.3698 43.0606 40.3323 43.0813L39.6418 43.4806C37.5827 44.6699 36.8747 47.3122 38.0632 49.3712L39.1207 51.2035C39.8886 52.5338 41.3208 53.3607 42.8573 53.3607C43.6113 53.3607 44.3562 53.1607 45.0114 52.7829L45.7103 52.3798C45.7333 52.3668 45.7532 52.3637 45.7662 52.3637C47.0919 53.4319 48.538 54.2665 50.0982 54.8542C50.1058 54.8573 50.1296 54.8864 50.1296 54.9324V55.7378C50.1296 58.1157 52.0645 60.0506 54.4424 60.0506H56.5582C58.9361 60.0506 60.871 58.1157 60.871 55.7378V54.9324C60.871 54.8856 60.8948 54.8573 60.9024 54.8542C62.4619 54.2665 63.9079 53.4319 65.2007 52.3737C65.2199 52.3706 65.2344 52.3691 65.2459 52.3691C65.2666 52.3691 65.2789 52.3737 65.2904 52.3806L65.9885 52.7836C66.6437 53.1614 67.3885 53.3614 68.1426 53.3614C69.6798 53.3614 71.112 52.5346 71.8799 51.2043L72.9374 49.372C74.126 47.3129 73.4179 44.6699 71.3588 43.4814L70.6684 43.0821C70.6316 43.0606 70.6147 43.0285 70.6178 43.0093C70.7542 42.1886 70.8232 41.3533 70.8232 40.5264C70.8232 39.6996 70.7542 38.8643 70.6178 38.0436C70.6147 38.0237 70.6308 37.9915 70.6684 37.97L71.3588 37.5708ZM70.1932 35.5515L69.5028 35.9508C68.633 36.4527 68.1541 37.4336 68.3188 38.4244C68.4322 39.108 68.4928 39.8099 68.4928 40.5257C68.4928 41.2414 68.4322 41.9434 68.3188 42.6269C68.1548 43.617 68.6338 44.5979 69.5028 45.1006L70.1932 45.4998C71.1412 46.047 71.4661 47.2593 70.9189 48.2072L69.8614 50.0395C69.4944 50.6755 68.8284 51.0311 68.1433 51.0311C67.8069 51.0311 67.4667 50.9453 67.154 50.7652L66.4559 50.3621C66.0758 50.1429 65.6544 50.0341 65.2344 50.0341C64.6949 50.0341 64.1593 50.2142 63.7232 50.5713C62.6412 51.4579 61.4136 52.1721 60.081 52.6741C59.1461 53.0266 58.5407 53.9346 58.5407 54.9339V55.7393C58.5407 56.8336 57.6533 57.721 56.559 57.721H54.4432C53.3489 57.721 52.4615 56.8336 52.4615 55.7393V54.9339C52.4615 53.9346 51.8561 53.0266 50.9212 52.6741C49.5886 52.1721 48.361 51.4579 47.2789 50.5713C46.8429 50.2142 46.3072 50.0341 45.7677 50.0341C45.3486 50.0341 44.9263 50.1429 44.5462 50.3621L43.8474 50.7652C43.5355 50.9453 43.1945 51.0311 42.8588 51.0311C42.1737 51.0311 41.5078 50.6755 41.1407 50.0402L40.0825 48.2072C39.5353 47.2593 39.8602 46.0477 40.8074 45.4998L41.4978 45.1006C42.3676 44.5986 42.8466 43.6178 42.6818 42.6269C42.5684 41.9434 42.5078 41.2414 42.5078 40.5257C42.5078 39.8099 42.5684 39.108 42.6818 38.4244C42.8466 37.4344 42.3668 36.4535 41.4978 35.9508L40.8074 35.5515C39.8595 35.0044 39.5353 33.7921 40.0825 32.8441L41.14 31.0119C41.507 30.3759 42.173 30.0203 42.8581 30.0203C43.1945 30.0203 43.5347 30.1061 43.8474 30.2862L44.5455 30.6893C44.9256 30.9084 45.347 31.0173 45.767 31.0173C46.3065 31.0173 46.8421 30.8372 47.2782 30.4801C48.3602 29.5934 49.5878 28.8792 50.9204 28.3773C51.8553 28.0248 52.4607 27.1167 52.4607 26.1174V25.312C52.4607 24.2178 53.3481 23.3304 54.4424 23.3304H56.5582C57.6525 23.3304 58.5399 24.2178 58.5399 25.312V26.119C58.5399 27.1183 59.1453 28.0263 60.0802 28.3788C61.4128 28.8808 62.6404 29.595 63.7225 30.4816C64.1585 30.8387 64.6942 31.0188 65.2337 31.0188C65.6528 31.0188 66.0751 30.91 66.4552 30.6908L67.154 30.2877C67.4659 30.1076 67.8069 30.0218 68.1426 30.0218C68.8277 30.0218 69.4936 30.3774 69.8607 31.0127L70.9189 32.8457C71.4661 33.7928 71.1412 35.0044 70.1932 35.5515Z" fill="#2D314F"/>
<path d="M55.5 32.9512C51.3236 32.9512 47.9265 36.349 47.9265 40.5254C47.9265 44.7018 51.3236 48.0989 55.5 48.0989C59.6764 48.0989 63.0742 44.7011 63.0742 40.5247C63.0742 36.3482 59.6764 32.9512 55.5 32.9512ZM55.5 45.7678C52.6041 45.7678 50.2569 43.4206 50.2569 40.5247C50.2569 37.6288 52.6041 35.2815 55.5 35.2815C58.3959 35.2815 60.7431 37.6288 60.7431 40.5247C60.7431 43.4206 58.3959 45.7678 55.5 45.7678Z" fill="#2D314F"/>
</svg>
