<svg width="111" height="111" viewBox="0 0 111 111" fill="none" xmlns="http://www.w3.org/2000/svg">
<circle cx="55.5" cy="55.5" r="54.5" stroke="#FFCC00" stroke-width="2"/>
<path d="M77.3633 50.4201C80.8791 48.0856 80.8791 42.9118 77.3619 40.5773C75.0345 39.0303 73.8855 36.2613 74.4396 33.519C75.2792 29.3521 71.589 25.7393 67.4812 26.5606C64.7768 27.1104 61.9459 25.9319 60.4215 23.6368C58.0856 20.1196 52.9146 20.1225 50.5801 23.6368C49.0557 25.9319 46.2149 27.1118 43.5218 26.5606C41.3659 26.1288 39.158 26.9248 37.777 28.6152C36.6534 29.9892 36.2104 31.7752 36.562 33.5204C37.1161 36.2599 35.9671 39.0303 33.6382 40.5773C31.9858 41.6742 31 43.5151 31 45.4994C31 47.4823 31.9858 49.3232 33.6396 50.4201C35.9671 51.967 37.1161 54.7361 36.562 57.4784C36.0613 59.9605 37.1793 62.5411 39.5209 63.8194L31.1842 83.5106C30.9578 84.045 31.083 84.6624 31.5006 85.0674C31.9183 85.471 32.5385 85.5779 33.0659 85.336L40.449 81.951L43.1449 89.6028C43.339 90.1512 43.8481 90.5239 44.4289 90.5422C44.443 90.5422 44.4584 90.5422 44.4711 90.5422C45.0336 90.5422 45.5469 90.2061 45.7663 89.6844L54.1592 69.8399C55.0733 70.0522 55.9283 70.0522 56.8424 69.8399L65.2353 89.6844C65.4547 90.2061 65.968 90.5422 66.5305 90.5422C66.5446 90.5422 66.56 90.5422 66.5727 90.5422C67.1535 90.5239 67.6626 90.1512 67.8567 89.6028L70.5526 81.951L77.9357 85.336C78.4631 85.5793 79.0847 85.4724 79.5009 85.0674C79.9186 84.6624 80.0438 84.0436 79.8174 83.5106L71.4807 63.818C73.8152 62.5439 74.9417 59.9689 74.4396 57.477C73.8855 54.7375 75.0345 51.967 77.3633 50.4201ZM44.5906 85.2432L42.5894 79.5645C42.4572 79.1904 42.176 78.8909 41.8117 78.7362C41.4461 78.5829 41.0369 78.5899 40.6754 78.7531L35.1852 81.2704L42.2688 64.5381C42.6837 64.5451 43.1027 64.5212 43.519 64.4368C48.465 63.4285 50.2384 67.3465 51.6447 68.5615L44.5906 85.2432ZM75.815 81.2704L70.3247 78.7531C69.9647 78.5899 69.5527 78.5843 69.1884 78.7362C68.8242 78.8909 68.5429 79.1904 68.4107 79.5645L66.4096 85.2432L59.3541 68.5615C59.7563 68.2142 60.1191 67.8162 60.4201 67.3619C63.1483 63.2569 67.3223 64.5606 68.73 64.5381L75.815 81.2704ZM75.8065 48.0772C72.52 50.2584 70.9013 54.1665 71.6804 58.0325C72.115 60.1926 70.2221 62.1305 68.0339 61.679C64.196 60.907 60.2654 62.5116 58.0772 65.8037C56.8494 67.653 54.1479 67.6502 52.9216 65.8037C50.7334 62.513 46.807 60.907 42.9635 61.679C40.7809 62.1319 38.8838 60.1911 39.3183 58.0339C40.0988 54.1665 38.4788 50.2584 35.1936 48.0772C33.3415 46.8466 33.3514 44.1451 35.1922 42.9202C38.4788 40.739 40.0974 36.8309 39.3183 32.9649C38.8852 30.809 40.7767 28.8669 42.9649 29.3183C46.8098 30.0918 50.7376 28.4802 52.9216 25.1936C54.1493 23.3443 56.8509 23.3471 58.0772 25.1936C60.2696 28.4928 64.2016 30.0876 68.0353 29.3183C70.2024 28.8641 72.1164 30.7964 71.6804 32.9635C70.8999 36.8309 72.52 40.739 75.8051 42.9202C77.6544 44.1479 77.6516 46.8509 75.8065 48.0772Z" fill="#2D314F"/>
<path d="M55.5005 31.8428C47.9711 31.8428 41.8438 37.9687 41.8438 45.4995C41.8438 53.0303 47.9697 59.1562 55.5005 59.1562C63.0313 59.1562 69.1572 53.0303 69.1572 45.4995C69.1572 37.9687 63.0299 31.8428 55.5005 31.8428ZM55.5005 56.3436C49.5208 56.3436 44.6564 51.4791 44.6564 45.4995C44.6564 39.5198 49.5208 34.6554 55.5005 34.6554C61.4801 34.6554 66.3445 39.5198 66.3445 45.4995C66.3445 51.4791 61.4801 56.3436 55.5005 56.3436Z" fill="#2D314F"/>
<path d="M59.9855 40.9191L54.4643 46.8298L50.9261 44.7344C50.2567 44.3392 49.3946 44.56 48.9994 45.228C48.6042 45.8974 48.8236 46.7595 49.493 47.1547L54.0031 49.8267C54.5768 50.1642 55.2983 50.0573 55.7469 49.5763L62.0402 42.8387C62.5703 42.272 62.5394 41.3818 61.9727 40.8516C61.4073 40.3214 60.5143 40.3509 59.9855 40.9191Z" fill="#2D314F"/>
</svg>
