<svg width="111" height="111" viewBox="0 0 111 111" fill="none" xmlns="http://www.w3.org/2000/svg">
<circle cx="55.5" cy="55.5" r="54.5" stroke="#FFCC00" stroke-width="2"/>
<path fill-rule="evenodd" clip-rule="evenodd" d="M66.4614 64.9911L65.9025 69.3446L70.0874 67.9748C69.959 67.8343 69.8263 67.6945 69.6893 67.5555C68.8572 66.7121 67.9393 65.9573 66.9504 65.3032C66.7867 65.1959 66.6229 65.0916 66.4591 64.9919L66.4614 64.9911ZM36.3178 29.2307C36.3241 29.0284 36.4092 28.8365 36.5551 28.6956C36.7009 28.5547 36.8961 28.4759 37.0992 28.4759C37.3023 28.4759 37.4975 28.5547 37.6433 28.6956C37.7892 28.8365 37.8743 29.0284 37.8806 29.2307V29.6084C38.3667 29.7377 38.8122 29.9872 39.1757 30.3338C39.4523 30.5945 39.6727 30.9087 39.8236 31.2571C39.9744 31.6054 40.0525 31.9808 40.053 32.3602C40.0467 32.5625 39.9616 32.7544 39.8158 32.8953C39.6699 33.0361 39.4748 33.1149 39.2716 33.1149C39.0685 33.1149 38.8734 33.0361 38.7275 32.8953C38.5817 32.7544 38.4966 32.5625 38.4902 32.3602C38.4893 32.1903 38.4538 32.0224 38.3859 31.8665C38.318 31.7107 38.2191 31.5702 38.0952 31.4535C37.8241 31.2038 37.4684 31.0651 37.0992 31.0651C36.73 31.0651 36.3743 31.2038 36.1032 31.4535C35.9787 31.5697 35.8794 31.7101 35.8116 31.8661C35.7437 32.022 35.7087 32.1902 35.7087 32.3602C35.7087 32.5302 35.7437 32.6983 35.8116 32.8543C35.8794 33.0102 35.9787 33.1507 36.1032 33.2668C36.3723 33.5197 36.729 33.6591 37.0988 33.656C37.8722 33.6541 38.6164 33.9503 39.1757 34.4825C39.4528 34.7429 39.6735 35.057 39.8244 35.4055C39.9752 35.7539 40.0531 36.1294 40.0531 36.5089C40.0531 36.8884 39.9752 37.2639 39.8244 37.6124C39.6735 37.9609 39.4528 38.2749 39.1757 38.5353C38.8121 38.8817 38.3666 39.1309 37.8806 39.2599V39.6377C37.8839 39.742 37.8661 39.8459 37.8283 39.9432C37.7905 40.0405 37.7334 40.1292 37.6605 40.2041C37.5877 40.279 37.5004 40.3386 37.404 40.3793C37.3076 40.42 37.2039 40.4409 37.0992 40.4409C36.9945 40.4409 36.8908 40.42 36.7944 40.3793C36.698 40.3386 36.6107 40.279 36.5379 40.2041C36.465 40.1292 36.4079 40.0405 36.3701 39.9432C36.3323 39.8459 36.3145 39.742 36.3178 39.6377V39.2599C35.8317 39.1309 35.3863 38.8817 35.0227 38.5353C34.7458 38.2743 34.5252 37.9598 34.3744 37.611C34.2235 37.2622 34.1456 36.8865 34.1454 36.5067C34.1421 36.4024 34.1599 36.2985 34.1977 36.2012C34.2355 36.1039 34.2925 36.0152 34.3654 35.9402C34.4383 35.8653 34.5255 35.8057 34.622 35.7651C34.7184 35.7244 34.822 35.7034 34.9267 35.7034C35.0315 35.7034 35.1351 35.7244 35.2315 35.7651C35.328 35.8057 35.4152 35.8653 35.4881 35.9402C35.561 36.0152 35.618 36.1039 35.6558 36.2012C35.6936 36.2985 35.7114 36.4024 35.7081 36.5067C35.7088 36.6766 35.7442 36.8446 35.8121 37.0005C35.8801 37.1563 35.9791 37.2968 36.1032 37.4133C36.3743 37.6631 36.73 37.8018 37.0992 37.8018C37.4684 37.8018 37.8241 37.6631 38.0952 37.4133C38.2197 37.2971 38.319 37.1567 38.3868 37.0008C38.4547 36.8448 38.4897 36.6766 38.4897 36.5067C38.4897 36.3367 38.4547 36.1685 38.3868 36.0126C38.319 35.8566 38.2197 35.7162 38.0952 35.6C37.8258 35.3472 37.4688 35.2081 37.0988 35.2116C36.3256 35.2135 35.5817 34.9173 35.0227 34.3851C34.7456 34.1247 34.5249 33.8106 34.374 33.4621C34.2232 33.1137 34.1453 32.7382 34.1453 32.3587C34.1453 31.9792 34.2232 31.6037 34.374 31.2552C34.5249 30.9067 34.7456 30.5927 35.0227 30.3323C35.3862 29.9857 35.8317 29.7362 36.3178 29.6069V29.2292V29.2307ZM67.2939 50.5842C67.3982 50.5809 67.5021 50.5986 67.5993 50.6361C67.6966 50.6736 67.7853 50.7302 67.8602 50.8026C67.9351 50.8749 67.9947 50.9615 68.0354 51.0572C68.076 51.1529 68.097 51.2558 68.097 51.3598C68.097 51.4637 68.076 51.5666 68.0354 51.6623C67.9947 51.758 67.9351 51.8446 67.8602 51.9169C67.7853 51.9893 67.6966 52.0459 67.5993 52.0834C67.5021 52.1209 67.3982 52.1386 67.2939 52.1353L45.8887 52.1195C45.6865 52.1132 45.4946 52.0287 45.3538 51.8839C45.213 51.7392 45.1343 51.5455 45.1343 51.3439C45.1343 51.1423 45.213 50.9486 45.3538 50.8038C45.4946 50.6591 45.6865 50.5746 45.8887 50.5683L67.2939 50.5842ZM45.8887 46.5616C45.6865 46.5553 45.4946 46.4708 45.3538 46.3261C45.213 46.1813 45.1343 45.9876 45.1343 45.786C45.1343 45.5844 45.213 45.3907 45.3538 45.246C45.4946 45.1012 45.6865 45.0167 45.8887 45.0104L67.2939 45.0263C67.3982 45.0231 67.5021 45.0407 67.5993 45.0782C67.6966 45.1158 67.7853 45.1724 67.8602 45.2447C67.9351 45.3171 67.9947 45.4036 68.0354 45.4994C68.076 45.5951 68.097 45.698 68.097 45.8019C68.097 45.9058 68.076 46.0087 68.0354 46.1044C67.9947 46.2001 67.9351 46.2867 67.8602 46.3591C67.7853 46.4314 67.6966 46.488 67.5993 46.5255C67.5021 46.563 67.3982 46.5807 67.2939 46.5775L45.8887 46.5616ZM42.3771 45.0648L42.5288 44.9364C42.6065 44.8675 42.6973 44.8148 42.7958 44.7814C42.8942 44.748 42.9985 44.7347 43.1022 44.7421C43.206 44.7496 43.3072 44.7777 43.3998 44.8248C43.4925 44.872 43.5747 44.9371 43.6417 45.0165C43.7086 45.0958 43.7589 45.1877 43.7896 45.2868C43.8203 45.3858 43.8307 45.49 43.8203 45.5931C43.8098 45.6962 43.7787 45.7962 43.7288 45.8872C43.6789 45.9781 43.6112 46.0582 43.5297 46.1226L42.3756 47.0912V52.6C42.3756 52.8065 42.2934 53.0045 42.1469 53.1506C42.0005 53.2966 41.8018 53.3788 41.5946 53.379H33.5016C33.2943 53.3788 33.0956 53.2966 32.949 53.1506C32.8024 53.0046 32.72 52.8065 32.7198 52.6V44.5322C32.72 44.3256 32.8024 44.1276 32.949 43.9816C33.0956 43.8355 33.2943 43.7534 33.5016 43.7532H41.5961C41.8033 43.7534 42.002 43.8356 42.1484 43.9816C42.2949 44.1277 42.3771 44.3257 42.3771 44.5322V45.0611V45.0648ZM35.1736 48.4868C35.0251 48.3547 34.9331 48.1709 34.9164 47.9732C34.8998 47.7756 34.9598 47.5791 35.0842 47.4242C35.2085 47.2693 35.3877 47.1679 35.5849 47.1406C35.7821 47.1134 35.9822 47.1625 36.1442 47.2779L37.9913 48.7467L40.8143 46.3772V45.3104H34.2826V51.8188H40.8143V48.4029L38.5047 50.3409C38.3671 50.4561 38.1938 50.5204 38.0141 50.5227C37.8344 50.5251 37.6594 50.4654 37.5189 50.3537L35.1766 48.4868H35.1736ZM74.7349 54.2479C74.7092 54.2847 74.6806 54.3193 74.6492 54.3514L67.0483 63.5299C67.301 63.681 67.5561 63.8404 67.8134 64.0081C68.1278 64.2162 68.4437 64.4401 68.7612 64.6798L78.4466 52.9876C78.1774 52.7859 77.9044 52.594 77.6307 52.4134C77.3274 52.2132 77.0241 52.0273 76.7208 51.8558L74.7394 54.2479H74.7349ZM73.3131 32.7342V53.5308L65.2876 63.2186C65.2545 63.2529 65.2245 63.29 65.1981 63.3296L65.1935 63.3357L65.1897 63.3402V63.3455V63.35V63.3553V63.3599L65.1837 63.3697V63.375L65.1791 63.3833V63.3886V63.3939V63.3984V63.4037V63.409C65.1322 63.4967 65.1026 63.5927 65.0919 63.6916L64.204 70.3699C64.1911 70.471 64.1984 70.5736 64.2254 70.6718C64.2523 70.7701 64.2985 70.8621 64.3611 70.9426C64.4238 71.0231 64.5018 71.0905 64.5906 71.1409C64.6795 71.1913 64.7774 71.2238 64.8788 71.2365C64.9926 71.2506 65.108 71.2398 65.217 71.2048L71.6441 69.0998C71.8007 69.0493 71.9371 68.9506 72.0339 68.818L73.3123 67.2744V83.0625H27.5628V23.5572H64.1031V31.9552C64.1033 32.1617 64.1858 32.3598 64.3323 32.5058C64.4789 32.6518 64.6776 32.734 64.8849 32.7342H73.3131ZM65.6659 24.658V31.1762H72.2083L69.7379 28.7154L69.7265 28.7033L65.6659 24.658ZM32.7797 84.6197H74.0918C74.2991 84.6195 74.4979 84.5374 74.6444 84.3913C74.791 84.2453 74.8734 84.0472 74.8736 83.8407V65.3893L78.527 60.9791V88.4428H32.7797V84.6197ZM78.6673 58.3755L73.536 64.571C73.5047 64.6028 73.476 64.6372 73.4503 64.6738L71.4182 67.1271C71.2225 66.9059 71.0173 66.6863 70.8025 66.4682C70.5381 66.1992 70.2578 65.9328 69.9615 65.6688L79.6477 53.9751C79.8979 54.2013 80.1385 54.4312 80.3696 54.6649C80.6259 54.9259 80.8665 55.1873 81.0914 55.4492L78.7529 58.272C78.7215 58.304 78.6929 58.3387 78.6673 58.3755ZM79.7432 52.0243C79.3254 51.6941 78.9091 51.3919 78.4913 51.1176C78.235 50.9476 77.9795 50.7889 77.727 50.6393L78.4693 49.7432C78.7613 49.9095 79.054 50.0885 79.3444 50.2804C80.3332 50.9346 81.2511 51.6894 82.0833 52.5328C82.3502 52.8032 82.6004 53.076 82.8317 53.348L82.0969 54.2358C81.9008 54.0136 81.6953 53.7938 81.4804 53.5762C81.0261 53.1164 80.548 52.6806 80.0481 52.2706C79.9821 52.2154 79.9154 52.1618 79.8494 52.1089C79.8166 52.0776 79.7811 52.0493 79.7432 52.0243ZM78.53 47.2333V28.9375H72.1711L74.6469 31.4044C74.7194 31.4768 74.7768 31.5627 74.8158 31.6572C74.8548 31.7517 74.8747 31.853 74.8744 31.9552V51.6442L78.5293 47.2356L78.53 47.2333ZM79.9548 47.9503C79.9296 47.9875 79.9009 48.0221 79.8691 48.0538L79.4763 48.5283C79.7185 48.6709 79.9616 48.822 80.2058 48.9816C81.2828 49.6986 82.2831 50.5237 83.1911 51.444C83.4156 51.6717 83.6301 51.9016 83.8349 52.1338L84.7683 51.0133C84.7922 50.9788 84.8189 50.9462 84.8479 50.9159C85.1989 50.4925 85.4064 49.9694 85.4409 49.4214C85.4584 49.2365 85.4355 49.0501 85.3737 48.8749C85.3119 48.6997 85.2127 48.54 85.083 48.4067C85.0519 48.3836 85.0225 48.3583 84.995 48.3311L82.9477 46.6462C82.7903 46.5323 82.6088 46.456 82.417 46.4232C82.2253 46.3905 82.0286 46.4021 81.8421 46.4573C81.289 46.5997 80.7975 46.9181 80.4424 47.364L79.9548 47.9518V47.9503ZM70.6083 27.3803H79.311C79.5182 27.3805 79.7169 27.4627 79.8633 27.6087C80.0098 27.7548 80.092 27.9528 80.092 28.1593V45.5824C80.5124 45.2792 80.9885 45.0615 81.4933 44.9417C81.9118 44.831 82.3504 44.8189 82.7744 44.9065C83.1983 44.9942 83.596 45.179 83.9357 45.4464L86.0369 47.1744C86.0559 47.1902 86.0748 47.2061 86.093 47.2227V47.2265C86.402 47.509 86.6433 47.857 86.7992 48.2449C86.9551 48.6328 87.0216 49.0506 86.9938 49.4675C86.9447 50.3784 86.5986 51.2486 86.0081 51.9457L80.0867 59.0932V89.221C80.0869 89.4266 80.0055 89.624 79.8601 89.7699C79.7148 89.9159 79.5174 89.9986 79.311 90H31.9949C31.8923 90 31.7906 89.9798 31.6958 89.9407C31.601 89.9015 31.5149 89.8441 31.4424 89.7718C31.3698 89.6995 31.3123 89.6136 31.2731 89.5191C31.2339 89.4246 31.2138 89.3233 31.2139 89.221V84.6197H26.7818C26.5745 84.6195 26.3758 84.5374 26.2292 84.3913C26.0826 84.2453 26.0002 84.0472 26 83.8407V22.779C26 22.6767 26.0202 22.5754 26.0595 22.4809C26.0988 22.3864 26.1564 22.3005 26.229 22.2282C26.3016 22.1558 26.3878 22.0984 26.4826 22.0593C26.5775 22.0201 26.6791 22 26.7818 22H64.8849C64.9892 21.9999 65.0925 22.0207 65.1886 22.061C65.2847 22.1014 65.3717 22.1605 65.4445 22.235L70.6083 27.3803ZM61.5402 62.3739L45.8887 62.358C45.6865 62.3643 45.4946 62.4488 45.3538 62.5935C45.213 62.7383 45.1343 62.932 45.1343 63.1336C45.1343 63.3352 45.213 63.5289 45.3538 63.6736C45.4946 63.8184 45.6865 63.9029 45.8887 63.9092L61.5402 63.925C61.6444 63.9283 61.7483 63.9106 61.8456 63.8731C61.9429 63.8356 62.0316 63.779 62.1065 63.7066C62.1814 63.6343 62.2409 63.5477 62.2816 63.452C62.3223 63.3563 62.3432 63.2534 62.3432 63.1494C62.3432 63.0455 62.3223 62.9426 62.2816 62.8469C62.2409 62.7512 62.1814 62.6646 62.1065 62.5923C62.0316 62.5199 61.9429 62.4633 61.8456 62.4258C61.7483 62.3883 61.6444 62.3706 61.5402 62.3739ZM45.8887 58.3513C45.6865 58.345 45.4946 58.2605 45.3538 58.1158C45.213 57.971 45.1343 57.7773 45.1343 57.5757C45.1343 57.3741 45.213 57.1804 45.3538 57.0357C45.4946 56.8909 45.6865 56.8064 45.8887 56.8001L67.2939 56.8168C67.3982 56.8135 67.5021 56.8312 67.5993 56.8687C67.6966 56.9062 67.7853 56.9628 67.8602 57.0352C67.9351 57.1075 67.9947 57.1941 68.0354 57.2898C68.076 57.3855 68.097 57.4884 68.097 57.5923C68.097 57.6963 68.076 57.7991 68.0354 57.8949C67.9947 57.9906 67.9351 58.0772 67.8602 58.1495C67.7853 58.2218 67.6966 58.2785 67.5993 58.316C67.5021 58.3535 67.3982 58.3712 67.2939 58.3679L45.8887 58.3513ZM42.3771 56.8545V56.3256C42.3771 56.2234 42.3569 56.1222 42.3177 56.0278C42.2784 55.9334 42.2209 55.8476 42.1484 55.7754C42.0759 55.7031 41.9898 55.6458 41.895 55.6067C41.8003 55.5676 41.6987 55.5474 41.5961 55.5474H33.5016C33.2944 55.5474 33.0956 55.6294 32.949 55.7753C32.8025 55.9212 32.72 56.1192 32.7198 56.3256V64.3867C32.72 64.5932 32.8024 64.7912 32.949 64.9373C33.0956 65.0833 33.2943 65.1654 33.5016 65.1656H41.5961C41.8033 65.1654 42.002 65.0833 42.1484 64.9372C42.2949 64.7912 42.3771 64.5931 42.3771 64.3867V58.8809L43.5335 57.9123C43.615 57.8479 43.6827 57.7678 43.7326 57.6769C43.7825 57.5859 43.8136 57.4859 43.824 57.3828C43.8345 57.2797 43.8241 57.1755 43.7934 57.0764C43.7627 56.9774 43.7124 56.8855 43.6455 56.8061C43.5785 56.7268 43.4963 56.6617 43.4036 56.6145C43.311 56.5674 43.2098 56.5393 43.106 56.5318C43.0022 56.5244 42.898 56.5377 42.7995 56.5711C42.7011 56.6044 42.6103 56.6572 42.5326 56.7261L42.3809 56.8545H42.3771ZM35.1736 60.2764C35.0903 60.2142 35.0204 60.1359 34.968 60.0462C34.9157 59.9566 34.882 59.8573 34.8689 59.7544C34.8558 59.6515 34.8635 59.547 34.8917 59.4472C34.9199 59.3473 34.968 59.2541 35.033 59.1731C35.098 59.0921 35.1787 59.0249 35.2703 58.9756C35.3619 58.9263 35.4625 58.8958 35.5661 58.8859C35.6698 58.8761 35.7744 58.8871 35.8736 58.9183C35.9729 58.9495 36.0649 59.0003 36.1442 59.0676L37.9913 60.5333L40.8143 58.1639V57.0986H34.2826V63.6069H40.8143V60.1926L38.5047 62.1313C38.367 62.2463 38.1936 62.3104 38.0139 62.3126C37.8343 62.3148 37.6594 62.255 37.5189 62.1434L35.1766 60.2764H35.1736ZM67.2939 74.2338L45.8887 74.218C45.6865 74.2242 45.4946 74.3087 45.3538 74.4535C45.213 74.5982 45.1343 74.7919 45.1343 74.9935C45.1343 75.1951 45.213 75.3888 45.3538 75.5336C45.4946 75.6784 45.6865 75.7628 45.8887 75.7691L67.2939 75.785C67.3982 75.7882 67.5021 75.7706 67.5993 75.733C67.6966 75.6955 67.7853 75.6389 67.8602 75.5666C67.9351 75.4942 67.9947 75.4076 68.0354 75.3119C68.076 75.2162 68.097 75.1133 68.097 75.0094C68.097 74.9055 68.076 74.8026 68.0354 74.7069C67.9947 74.6112 67.9351 74.5246 67.8602 74.4522C67.7853 74.3799 67.6966 74.3233 67.5993 74.2858C67.5021 74.2482 67.3982 74.2306 67.2939 74.2338ZM45.8887 70.2112L61.5402 70.2271C61.6444 70.2304 61.7483 70.2127 61.8456 70.1752C61.9429 70.1377 62.0316 70.081 62.1065 70.0087C62.1814 69.9364 62.2409 69.8498 62.2816 69.7541C62.3223 69.6583 62.3432 69.5555 62.3432 69.4515C62.3432 69.3476 62.3223 69.2447 62.2816 69.149C62.2409 69.0533 62.1814 68.9667 62.1065 68.8944C62.0316 68.822 61.9429 68.7654 61.8456 68.7279C61.7483 68.6904 61.6444 68.6727 61.5402 68.676L45.8887 68.6601C45.6865 68.6664 45.4946 68.7508 45.3538 68.8956C45.213 69.0404 45.1343 69.2341 45.1343 69.4357C45.1343 69.6373 45.213 69.831 45.3538 69.9757C45.4946 70.1205 45.6865 70.205 45.8887 70.2112ZM42.3771 68.7145V68.1856C42.3771 67.9791 42.2949 67.7811 42.1484 67.635C42.002 67.489 41.8033 67.4068 41.5961 67.4066H33.5016C33.2943 67.4068 33.0956 67.489 32.949 67.635C32.8024 67.781 32.72 67.9791 32.7198 68.1856V76.2489C32.72 76.4554 32.8024 76.6534 32.949 76.7995C33.0956 76.9455 33.2943 77.0277 33.5016 77.0279H41.5961C41.8033 77.0277 42.002 76.9455 42.1484 76.7994C42.2949 76.6534 42.3771 76.4554 42.3771 76.2489V70.7409L43.5335 69.7723C43.615 69.7078 43.6827 69.6278 43.7326 69.5368C43.7825 69.4459 43.8136 69.3459 43.824 69.2428C43.8345 69.1396 43.8241 69.0355 43.7934 68.9364C43.7627 68.8374 43.7124 68.7454 43.6455 68.6661C43.5785 68.5868 43.4963 68.5216 43.4036 68.4745C43.311 68.4274 43.2098 68.3993 43.106 68.3918C43.0022 68.3843 42.898 68.3977 42.7995 68.431C42.7011 68.4644 42.6103 68.5171 42.5326 68.586L42.3809 68.7145H42.3771ZM35.1736 72.1364C35.0251 72.0043 34.9331 71.8205 34.9164 71.6229C34.8998 71.4252 34.9598 71.2287 35.0842 71.0739C35.2085 70.919 35.3877 70.8175 35.5849 70.7903C35.7821 70.763 35.9822 70.8122 36.1442 70.9275L37.9913 72.3956L40.8143 70.0261V68.96H34.2826V75.4684H40.8143V72.0525L38.5047 73.9905C38.3671 74.1058 38.1938 74.17 38.0141 74.1724C37.8344 74.1747 37.6594 74.115 37.5189 74.0034L35.1766 72.1364H35.1736ZM45.7712 38.2361H64.8849C65.0879 38.2298 65.2805 38.145 65.4219 37.9997C65.5633 37.8544 65.6423 37.6599 65.6423 37.4575C65.6423 37.2551 65.5633 37.0607 65.4219 36.9154C65.2805 36.77 65.0879 36.6852 64.8849 36.6789H45.7712C45.6665 36.6757 45.5623 36.6934 45.4646 36.7311C45.367 36.7688 45.2779 36.8256 45.2027 36.8982C45.1275 36.9708 45.0677 37.0578 45.0269 37.1538C44.9861 37.2499 44.965 37.3532 44.965 37.4575C44.965 37.5619 44.9861 37.6651 45.0269 37.7612C45.0677 37.8573 45.1275 37.9442 45.2027 38.0169C45.2779 38.0895 45.367 38.1463 45.4646 38.184C45.5623 38.2216 45.6665 38.2394 45.7712 38.2361ZM45.7712 33.0349H57.4235C57.6309 33.0349 57.8297 32.9528 57.9763 32.8067C58.1229 32.6606 58.2053 32.4625 58.2053 32.2559C58.2053 32.0493 58.1229 31.8512 57.9763 31.7051C57.8297 31.559 57.6309 31.4769 57.4235 31.4769H45.7712C45.5638 31.4769 45.365 31.559 45.2184 31.7051C45.0718 31.8512 44.9894 32.0493 44.9894 32.2559C44.9894 32.4625 45.0718 32.6606 45.2184 32.8067C45.365 32.9528 45.5638 33.0349 45.7712 33.0349Z" fill="#2D314F"/>
</svg>
