<svg width="111" height="111" viewBox="0 0 111 111" fill="none" xmlns="http://www.w3.org/2000/svg">
<circle cx="55.5" cy="55.5" r="54.5" stroke="#FFCC00" stroke-width="2"/>
<path d="M51.0486 22.1133H48.8228V54.3875H51.0486V22.1133Z" fill="#2D314F"/>
<path d="M77.758 48.8223H22.1128V51.0481H77.758V48.8223Z" fill="#2D314F"/>
<path d="M65.181 54.5461L62.9785 54.229C63.1855 52.7889 63.2901 51.3454 63.2901 49.9354C63.2901 33.2396 49.4267 23.1177 49.2876 23.0176L50.583 21.208C51.1929 21.6454 65.516 32.1078 65.516 49.9354C65.516 51.45 65.4036 53.0014 65.181 54.5461Z" fill="#2D314F"/>
<path d="M49.9354 38.8066C34.9769 38.8066 29.2755 32.0079 29.0396 31.7185L30.7634 30.3096C30.8146 30.373 36.1232 36.5808 49.9354 36.5808C63.8467 36.5808 69.0529 30.3763 69.1041 30.314L70.8313 31.7185C70.5954 32.0079 64.894 38.8066 49.9354 38.8066Z" fill="#2D314F"/>
<path d="M87.7743 82.2096H78.8711V75.5322H87.7743C89.0019 75.5322 90.0001 76.5305 90.0001 77.758V79.9838C90.0001 81.2114 89.0019 82.2096 87.7743 82.2096ZM81.0969 79.9838H87.7743V77.758H81.0969V79.9838Z" fill="#2D314F"/>
<path d="M87.7741 76.6447H85.5483V70.1687L82.5512 62.177H66.6289V59.9512H84.0937L87.7741 69.7659V76.6447Z" fill="#2D314F"/>
<path d="M34.69 54.5461C34.4674 53.0014 34.355 51.45 34.355 49.9354C34.355 32.1078 48.678 21.6454 49.2879 21.208L50.5844 23.0165C50.4442 23.1177 36.5808 33.2741 36.5808 49.9354C36.5808 51.3454 36.6854 52.7889 36.8924 54.2278L34.69 54.5461Z" fill="#2D314F"/>
<path d="M73.3064 89.9996C69.0106 89.9996 65.5161 86.5051 65.5161 82.2093C65.5161 77.9135 69.0106 74.4189 73.3064 74.4189C77.6022 74.4189 81.0968 77.9135 81.0968 82.2093C81.0968 86.5051 77.6022 89.9996 73.3064 89.9996ZM73.3064 76.6448C70.2382 76.6448 67.7419 79.141 67.7419 82.2093C67.7419 85.2775 70.2382 87.7738 73.3064 87.7738C76.3747 87.7738 78.871 85.2775 78.871 82.2093C78.871 79.141 76.3747 76.6448 73.3064 76.6448Z" fill="#2D314F"/>
<path d="M43.2581 89.9996C38.9623 89.9996 35.4678 86.5051 35.4678 82.2093C35.4678 77.9135 38.9623 74.4189 43.2581 74.4189C47.5539 74.4189 51.0484 77.9135 51.0484 82.2093C51.0484 86.5051 47.5539 89.9996 43.2581 89.9996ZM43.2581 76.6448C40.1898 76.6448 37.6936 79.141 37.6936 82.2093C37.6936 85.2775 40.1898 87.7738 43.2581 87.7738C46.3264 87.7738 48.8226 85.2775 48.8226 82.2093C48.8226 79.141 46.3264 76.6448 43.2581 76.6448Z" fill="#2D314F"/>
<path d="M30.7611 69.5633L29.0405 68.151C29.1006 68.0775 30.5574 66.3214 33.8327 64.583L34.8766 66.5495C32.0342 68.0575 30.7744 69.5488 30.7611 69.5633Z" fill="#2D314F"/>
<path d="M33.7305 73.9096C25.7588 68.5121 21 59.5499 21 49.9355C21 33.9809 33.9809 21 49.9355 21C65.8901 21 78.871 33.9809 78.871 49.9355C78.871 53.9486 78.0586 57.8427 76.4571 61.5097L74.4171 60.6194C75.8951 57.235 76.6452 53.6403 76.6452 49.9355C76.6452 35.2073 64.6625 23.2258 49.9355 23.2258C35.2084 23.2258 23.2258 35.2073 23.2258 49.9355C23.2258 58.8098 27.6195 67.0831 34.9792 72.0667L33.7305 73.9096Z" fill="#2D314F"/>
<path d="M67.7417 81.097H49.341V78.8712H65.5159V55.5002H35.4675V78.8712H36.5804V81.097H33.2417V53.2744H67.7417V81.097Z" fill="#2D314F"/>
<path d="M86.6615 71.0806H76.6454C74.8046 71.0806 73.3066 69.5826 73.3066 67.7419V61.0645H75.5324V67.7419C75.5324 68.3551 76.0321 68.8548 76.6454 68.8548H86.6615V71.0806Z" fill="#2D314F"/>
<path d="M66.6292 62.1777H34.355V64.4035H66.6292V62.1777Z" fill="#2D314F"/>
<path d="M66.6291 68.8545H39.9194V71.0803H66.6291V68.8545Z" fill="#2D314F"/>
<path d="M37.6937 68.8545H34.355V71.0803H37.6937V68.8545Z" fill="#2D314F"/>
</svg>
